<?xml version="1.0" encoding="utf-8"?>
<!-- Generator: Adobe Illustrator 21.0.0, SVG Export Plug-In . SVG Version: 6.00 Build 0)  -->
<svg version="1.1"
	 id="svg2" xmlns:cc="http://creativecommons.org/ns#" xmlns:dc="http://purl.org/dc/elements/1.1/" xmlns:rdf="http://www.w3.org/1999/02/22-rdf-syntax-ns#" xmlns:svg="http://www.w3.org/2000/svg"
	 xmlns="http://www.w3.org/2000/svg" xmlns:xlink="http://www.w3.org/1999/xlink" x="0px" y="0px" viewBox="0 0 526 449"
	 style="enable-background:new 0 0 526 449;" xml:space="preserve">
<style type="text/css">
	.st0{fill:#231F20;}
	.st1{fill:#FFFFFF;}
	.st2{fill:#FCD213;}
	.st3{fill:#E22739;}
	.st4{fill:none;stroke:#231F20;stroke-width:7.5;stroke-linecap:round;stroke-linejoin:round;}
</style>
<g id="g10" transform="matrix(1.3333333,0,0,-1.3333333,0,774)">
	<g id="g12" transform="scale(0.1)">
		<path id="path14" class="st0" d="M1691.6,642.6c-5.6,15.8-20.2,26.2-38.8,26.2c-28.4,0-46.1-20.6-46.1-49.1
			c0-30.8,22.1-53.4,47.9-53.4c13.4,0,29.9,4.6,41.5,25.2h3.2c-2.2-7.6-6.8-18.2-10.9-24.8c-10.9,1.5-18.3-4.6-38.4-4.6
			c-34.5,0-59.3,22.8-59.3,54.2c0,33,25.5,56.8,61,56.8c21.4,0,30.6-6.8,35.9-6.8c1.9,0,2.7,0.5,3.1,1h2.6l1.5-24.7L1691.6,642.6"/>
		<path id="path16" class="st0" d="M1808.4,668.8c-29.9,0-41.8-27.9-41.8-48.3c0-31.8,21.6-54.2,49-54.2c27.7,0,41,24.5,41,48.6
			C1856.5,646.6,1836.4,668.8,1808.4,668.8z M1811.9,562.1c-33.3,0-61.4,21.4-61.4,53.2c0,33.8,26,57.8,62.2,57.8
			c32.1,0,59.7-21.9,59.7-52.5C1872.5,586.2,1844.9,562.1,1811.9,562.1"/>
		<path id="path18" class="st0" d="M1996.6,564.8h-76v3.2h5.6c7.8,0,10.7,2.6,10.7,11.2v75.3c0,9-2.7,12.8-13.4,12.8h-2.4v3.2h50.2
			v-3.2h-6.3c-11.1,0-13.9-1.2-13.9-11.7v-78.4c0-4.6,1.9-6.3,6.8-6.3h25c10,0,13.1,3.9,23.8,18.7h3.1L1996.6,564.8"/>
		<path id="path20" class="st0" d="M2126.1,564.8h-76v3.2h5.6c7.8,0,10.7,2.6,10.7,11.2v75.3c0,9-2.7,12.8-13.4,12.8h-2.4v3.2h50.1
			v-3.2h-6.3c-11,0-13.9-1.2-13.9-11.7v-78.4c0-4.6,1.9-6.3,6.8-6.3h25c10,0,13.1,3.9,23.8,18.7h3.1L2126.1,564.8"/>
		<path id="path22" class="st0" d="M2255.1,603.1h-3.2c-1.4,12.1-4.6,13.4-11.6,13.4h-28.7v-36.2c0-7.8,2.9-9.3,9.2-9.3h26.2
			c11.9,0,15.5,4.6,19.7,19.2h3.1l-2.7-25.3h-90.3v3.2h4.8c13.6,0,16,3.8,16,13.9v71.7c0,9.5-2.2,13.6-13.6,13.6h-3.7v3.2h81.6
			l1.4-23.6h-3.1c-2.2,14.5-6.5,17.5-12.6,17.5h-35.9v-41.8h30.4c6.1,0,9,2.9,9.9,12.8h3.2L2255.1,603.1"/>
		<path id="path24" class="st0" d="M2422.7,572.8c-16.8-8.7-38.4-10.7-45.6-10.7c-37.2,0-54.6,28.7-54.6,53.5
			c0,25.5,17.8,57.5,59.3,57.5c18.2,0,30.3-5.8,33.8-5.8c1.5,0,2.9,0.3,3.9,1.2h2.4V641h-3.4c-4.6,21.2-19,27.9-34.8,27.9
			c-29.9,0-45.2-24.8-45.2-52.2c0-34.8,24.5-50.3,44-50.3c7.8,0,16.5,1.7,26,6.5v21.4c0,9.7-3.4,12.9-13.6,12.9h-6.3v3.1h45.9v-3.1
			c-8.5-0.5-11.9-3.4-11.9-10.7V572.8"/>
		<path id="path26" class="st0" d="M2553.3,603.1h-3.2c-1.4,12.1-4.6,13.4-11.6,13.4h-28.7v-36.2c0-7.8,2.9-9.3,9.2-9.3h26.2
			c11.9,0,15.5,4.6,19.7,19.2h3.1l-2.7-25.3h-90.3v3.2h4.8c13.6,0,16,3.8,16,13.9v71.7c0,9.5-2.2,13.6-13.6,13.6h-3.7v3.2h81.6
			l1.4-23.6h-3.1c-2.2,14.5-6.4,17.5-12.6,17.5h-35.9v-41.8h30.4c6.1,0,9,2.9,9.9,12.8h3.2L2553.3,603.1"/>
		<path id="path28" class="st0" d="M2760.9,668.8c-29.9,0-41.8-27.9-41.8-48.3c0-31.8,21.6-54.2,49-54.2c27.7,0,41,24.5,41,48.6
			C2809,646.6,2788.9,668.8,2760.9,668.8L2760.9,668.8z M2764.4,562.1c-33.3,0-61.4,21.4-61.4,53.2c0,33.8,26,57.8,62.2,57.8
			c32.1,0,59.7-21.9,59.7-52.5C2825,586.2,2797.4,562.1,2764.4,562.1"/>
		<path id="path30" class="st0" d="M2950.3,605.4h-2.9c-0.3,9.9-3.9,12.9-12.1,12.9h-31.4v-37.2c0-9.5,2-13.1,14.8-13.1v-3.2h-41.3
			v3.2c10.5,0.7,12.4,2.9,12.4,16.7v66.6c0,10.9-0.9,15.8-12.8,16v3.2h76.1v-20.1h-2.9c-0.2,9.9-3.6,13.9-14.1,13.9h-32.3v-39.9
			h33.7c6.3,0,9.4,3.6,9.9,10.9h2.9L2950.3,605.4"/>
		<path id="path32" class="st0" d="M1208.5,323.8c0-22.8,9-30.9,34.2-30.9c39.6,0,51,24.6,51,48c0,23.1-17.7,46.8-52.8,46.8h-32.4
			V323.8z M1208.5,393.4h32.7c28.8,0,43.2,11.4,43.2,34.8c0,21-12.6,40.2-49.5,40.2c-6.6,0-18.9-0.6-26.4-0.9L1208.5,393.4z
			 M1183.6,439.6c0,17.1-2.1,26.1-23.1,26.1H1150v5.7c8.4,0.3,29.1,1.5,37.8,1.8c16.5,0.6,39.3,0.9,45,0.9
			c26.4,0,49.5-3.9,60.3-11.7c12.3-8.7,18.3-18.9,18.3-33.3c0-17.1-14.1-33-34.2-36.6v-0.6c28.2-8.4,44.7-26.7,44.7-50.1
			c0-23.7-16.5-57-64.8-57h-109.8v5.7h6.9c24.6,0,29.4,5.7,29.4,24.6L1183.6,439.6"/>
		<path id="path34" class="st0" d="M1481.5,352.3h-5.7c-2.4,21.3-8.1,23.7-20.4,23.7h-50.7v-63.9c0-13.8,5.1-16.5,16.2-16.5h46.2
			c21,0,27.3,8.1,34.8,33.9h5.4l-4.8-44.7h-159.3v5.7h8.4c24,0,28.2,6.6,28.2,24.6v126.6c0,16.8-3.9,24-24,24h-6.6v5.7h144l2.4-41.7
			h-5.4c-3.9,25.5-11.4,30.9-22.2,30.9h-63.3v-73.8h53.7c10.8,0,15.9,5.1,17.4,22.5h5.7L1481.5,352.3"/>
		<path id="path36" class="st0" d="M1584.4,373.9v-57c0-19.5,3.9-26.4,24-26.4h0.9v-5.7H1534v5.7h1.8c17.7,0,23.7,4.8,23.7,21.9v132
			c0,15.6-5.1,20.1-21.6,21.3v5.7h71.4v-5.7c-21.3,0-24.9-5.7-24.9-28.8v-52.2H1702v59.1c0,15.9-5.1,21.9-23.7,21.9h-5.7v5.7h77.1
			v-5.7c-18-0.6-22.8-6-22.8-24.6V316.6c0-21.3,6-26.1,24-26.1h3v-5.7H1669v5.7h9.3c19.5,0,23.7,6.9,23.7,22.5v60.9H1584.4"/>
		<path id="path38" class="st0" d="M1849,450.7l-25.5-69.9h51.9L1849,450.7z M1818.4,367.6l-17.4-47.1c-2.1-5.7-6-14.7-6-18.9
			c0-8.1,7.8-11.1,24.3-11.1h4.8v-5.7h-69.3v5.7c19.5,0.3,22.8,3.6,32.4,29.7l54.6,149.1l-2.7,6.6h26.1l62.7-166.5
			c6-15.9,12.3-18.9,27.3-18.9v-5.7h-82.5v5.7h7.8c17.1,0,23.4,1.8,23.4,10.2c0,4.8-2.1,9.3-3.3,12.3l-20.1,54.6L1818.4,367.6"/>
		<path id="path40" class="st0" d="M2019.4,280l-65.1,162.3c-7.5,18.9-11.1,23.4-29.4,23.4v5.7h82.5v-5.7
			c-27.6-0.6-34.2-6.9-28.5-20.7l54-134.4l47.4,123.9c3.3,8.4,5.1,14.4,5.1,18.6c0,9-7.5,12.6-27.9,12.6v5.7h69.6v-5.7
			c-15.6,0-23.7-7.2-30.9-25.8L2034.4,280H2019.4"/>
		<path id="path42" class="st0" d="M2202.7,284.8h-72.9v5.7c18.6,0.9,22.5,5.7,22.5,25.8v127.8c0,16.2-5.7,20.7-22.5,21.6v5.7h72.9
			v-5.7c-18.9,0-25.5-4.2-25.5-24.3V314.2c0-17.7,4.8-23.7,25.5-23.7V284.8"/>
		<path id="path44" class="st0" d="M2326.6,468.4c-52.8,0-73.8-49.2-73.8-85.2c0-56.1,38.1-95.7,86.4-95.7
			c48.9,0,72.3,43.2,72.3,85.8C2411.5,429.1,2376.1,468.4,2326.6,468.4z M2332.9,280c-58.8,0-108.3,37.8-108.3,93.9
			c0,59.7,45.9,102,109.8,102c56.7,0,105.3-38.7,105.3-92.7C2439.7,322.6,2391.1,280,2332.9,280"/>
		<path id="path46" class="st0" d="M2506.8,371c7.1-0.9,11.5-0.6,18.3-0.6c32.7,0,54.3,13.9,54.3,49.3c0,27.4-12.4,48.7-57.8,48.7
			c-5.6,0-9.4,0-14.7-0.6V371z M2506.8,315.5c0-17.7,7.1-22.1,23.6-22.1h6.8v-5.6h-83.5v5.6h5c17.4,0,23.6,4.7,23.6,24.5v124.2
			c0,18.3-5,23.6-22.1,23.6h-6.5v5.6c7.1,0,25.1,1.2,37.2,1.8c12.1,0.6,18,0.9,37.2,0.9c54.6,0,79-22.4,79-52.5
			c0-22.1-15-40.7-39.2-47.8c10.9-8.5,19.8-16.8,33.6-30.7l23.3-23.3c17.4-17.4,35.4-28.3,58.1-29.8v-5.3
			c-51.6-2.3-64.9,8.9-91.1,35.1l-19.5,19.5c-13,13-23.3,21.5-30.4,26.2c-7.4-0.3-12.1-0.6-20.1-0.6c-6.5,0-10.3,0.3-15,0.6
			L2506.8,315.5"/>
		<path id="path48" class="st0" d="M2776.3,450.7l-25.5-69.9h51.9L2776.3,450.7z M2745.7,367.6l-17.4-47.1c-2.1-5.7-6-14.7-6-18.9
			c0-8.1,7.8-11.1,24.3-11.1h4.8v-5.7h-69.3v5.7c19.5,0.3,22.8,3.6,32.4,29.7l54.6,149.1l-2.7,6.6h26.1l62.7-166.5
			c6-15.9,12.3-18.9,27.3-18.9v-5.7H2800v5.7h7.8c17.1,0,23.4,1.8,23.4,10.2c0,4.8-2.1,9.3-3.3,12.3l-20.1,54.6L2745.7,367.6"/>
		<path id="path50" class="st0" d="M3015.1,284.8H2881v5.7h9.9c13.8,0,18.9,4.5,18.9,19.8v132.9c0,15.9-4.8,22.5-23.7,22.5h-4.2v5.7
			h88.5v-5.7h-11.1c-19.5,0-24.6-2.1-24.6-20.7V306.7c0-8.1,3.3-11.1,12-11.1h44.1c17.7,0,23.1,6.9,42,33h5.4L3015.1,284.8"/>
		<path id="path52" class="st0" d="M3193.9,453.7c-12.3,0-19.8-8.4-19.8-21.6c0-12.6,7.5-24.9,22.2-36c13.8,8.1,19.5,17.4,19.5,32.4
			C3215.8,443.8,3207.1,453.7,3193.9,453.7z M3184.9,295.6c17.4,0,39.9,11.7,52.8,27.3c-13.2,22.2-31.8,42-57,59.4
			c-22.8-15.9-32.1-30-32.1-48.6C3148.6,310.9,3163.3,295.6,3184.9,295.6z M3326.5,410.2v-5.4c-16.8,0-21.3-1.5-25.5-5.7
			c-6-6-21-36.9-45-64.8c16.5-25.5,21.6-43.5,36-43.5c6,0,13.5,3.3,23.4,10.2l2.7-4.8c-12.9-10.2-25.5-15.6-36.9-15.6
			c-18.6,0-23.7,6.9-40.2,37.2c-22.2-23.7-47.1-37.2-68.4-37.2c-27.3,0-48.6,21.6-48.6,49.5c0,24.6,14.7,40.5,52.5,55.8
			c-12.9,11.1-21.3,26.1-21.3,39c0,21,16.2,34.8,40.8,34.8c22.2,0,38.1-12,38.1-29.1c0-13.8-12-27.3-33.9-38.1
			c19.5-13.2,37.8-31.5,52.2-53.1c14.1,17.7,37.5,51.3,37.5,59.4c0,4.2-3.3,6-16.5,6v5.4L3326.5,410.2"/>
		<path id="path54" class="st0" d="M997.8,50.4c6.3-26.7,27.3-42.3,50.7-42.3c20.1,0,41.4,11.7,41.4,35.4
			c0,43.2-96.3,56.4-96.3,108.9c0,24.9,22.8,43.5,53.4,43.5c25.2,0,30.3-7.5,40.8-7.5c2.4,0,3.6,0.6,5.4,3h4.8l5.1-38.1h-5.1
			c-8.4,21.6-27.6,35.4-48.3,35.4c-19.8,0-33.6-11.4-33.6-28.2c0-42.6,96.3-54,96.3-109.2c0-29.4-26.1-51.3-61.2-51.3
			c-16.5,0-37.5,8.1-41.7,8.1c-2.7,0-4.8-1.5-6-3.3h-5.1l-6.3,45.6H997.8"/>
		<path id="path56" class="st0" d="M1237.8,188.4c-52.8,0-73.8-49.2-73.8-85.2c0-56.1,38.1-95.7,86.4-95.7
			c48.9,0,72.3,43.2,72.3,85.8C1322.7,149.1,1287.3,188.4,1237.8,188.4z M1244.1,0c-58.8,0-108.3,37.8-108.3,93.9
			c0,59.7,45.9,102,109.8,102c56.7,0,105.3-38.7,105.3-92.7C1350.9,42.6,1302.3,0,1244.1,0"/>
		<path id="path58" class="st0" d="M1560.3,142.2c-9.9,27.9-35.7,46.2-68.4,46.2c-50.1,0-81.3-36.3-81.3-86.7
			c0-54.3,39-94.2,84.6-94.2c23.7,0,52.8,8.1,73.2,44.4h5.7c-3.9-13.5-12-32.1-19.2-43.8c-19.2,2.7-32.4-8.1-67.8-8.1
			c-60.9,0-104.7,40.2-104.7,95.7c0,58.2,45,100.2,107.7,100.2c37.8,0,54-12,63.3-12c3.3,0,4.8,0.9,5.4,1.8h4.5l2.7-43.5H1560.3"/>
		<path id="path60" class="st0" d="M1671.9,4.8H1599v5.7c18.6,0.9,22.5,5.7,22.5,25.8v127.8c0,16.2-5.7,20.7-22.5,21.6v5.7h72.9
			v-5.7c-18.9,0-25.5-4.2-25.5-24.3V34.2c0-17.7,4.8-23.7,25.5-23.7V4.8"/>
		<path id="path62" class="st0" d="M1786.8,170.7l-25.5-69.9h51.9L1786.8,170.7z M1756.2,87.6l-17.4-47.1c-2.1-5.7-6-14.7-6-18.9
			c0-8.1,7.8-11.1,24.3-11.1h4.8V4.8h-69.3v5.7c19.5,0.3,22.8,3.6,32.4,29.7l54.6,149.1l-2.7,6.6h26.1l62.7-166.5
			c6-15.9,12.3-18.9,27.3-18.9V4.8h-82.5v5.7h7.8c17.1,0,23.4,1.8,23.4,10.2c0,4.8-2.1,9.3-3.3,12.3l-20.1,54.6L1756.2,87.6"/>
		<path id="path64" class="st0" d="M2025.6,4.8h-134.1v5.7h9.9c13.8,0,18.9,4.5,18.9,19.8v132.9c0,15.9-4.8,22.5-23.7,22.5h-4.2v5.7
			h88.5v-5.7h-11.1c-19.5,0-24.6-2.1-24.6-20.7V26.7c0-8.1,3.3-11.1,12-11.1h44.1c17.7,0,23.1,6.9,42,33h5.4L2025.6,4.8"/>
		<path id="path66" class="st0" d="M2153.4,50.4c6.3-26.7,27.3-42.3,50.7-42.3c20.1,0,41.4,11.7,41.4,35.4
			c0,43.2-96.3,56.4-96.3,108.9c0,24.9,22.8,43.5,53.4,43.5c25.2,0,30.3-7.5,40.8-7.5c2.4,0,3.6,0.6,5.4,3h4.8l5.1-38.1h-5.1
			c-8.4,21.6-27.6,35.4-48.3,35.4c-19.8,0-33.6-11.4-33.6-28.2c0-42.6,96.3-54,96.3-109.2c0-29.4-26.1-51.3-61.2-51.3
			c-16.5,0-37.5,8.1-41.7,8.1c-2.7,0-4.8-1.5-6-3.3h-5.1l-6.3,45.6H2153.4"/>
		<path id="path68" class="st0" d="M2468.9,142.2c-9.9,27.9-35.7,46.2-68.4,46.2c-50.1,0-81.3-36.3-81.3-86.7
			c0-54.3,39-94.2,84.6-94.2c23.7,0,52.8,8.1,73.2,44.4h5.7c-3.9-13.5-12-32.1-19.2-43.8c-19.2,2.7-32.4-8.1-67.8-8.1
			C2334.8,0,2291,40.2,2291,95.7c0,58.2,45,100.2,107.7,100.2c37.8,0,54-12,63.3-12c3.3,0,4.8,0.9,5.4,1.8h4.5l2.7-43.5H2468.9"/>
		<path id="path70" class="st0" d="M2580.5,4.8h-72.9v5.7c18.6,0.9,22.5,5.7,22.5,25.8v127.8c0,16.2-5.7,20.7-22.5,21.6v5.7h72.9
			v-5.7c-18.9,0-25.5-4.2-25.5-24.3V34.2c0-17.7,4.8-23.7,25.5-23.7V4.8"/>
		<path id="path72" class="st0" d="M2742.2,72.3h-5.7c-2.4,21.3-8.1,23.7-20.4,23.7h-50.7V32.1c0-13.8,5.1-16.5,16.2-16.5h46.2
			c21,0,27.3,8.1,34.8,33.9h5.4l-4.8-44.7h-159.3v5.7h8.4c24,0,28.2,6.6,28.2,24.6v126.6c0,16.8-3.9,24-24,24h-6.6v5.7h144l2.4-41.7
			h-5.4c-3.9,25.5-11.4,30.9-22.2,30.9h-63.3v-73.8h53.7c10.8,0,15.9,5.1,17.4,22.5h5.7L2742.2,72.3"/>
		<path id="path74" class="st0" d="M2990.9,2.7l-155.4,162.6V36.6c0-21.6,4.8-26.1,30.3-26.1V4.8h-69.6v5.7h1.2
			c18.6,0,24.6,6.3,24.6,20.1v147.6c-6.9,4.8-14.7,7.2-25.2,7.5v5.7h47.1l141.3-147.3v119.4c0,18.3-5.4,21.6-29.4,22.2v5.7h70.2
			v-5.7c-22.5,0-27.3-3.9-27.3-15.6V2.7H2990.9"/>
		<path id="path76" class="st0" d="M3215.6,142.2c-9.9,27.9-35.7,46.2-68.4,46.2c-50.1,0-81.3-36.3-81.3-86.7
			c0-54.3,39-94.2,84.6-94.2c23.7,0,52.8,8.1,73.2,44.4h5.7c-3.9-13.5-12-32.1-19.2-43.8c-19.2,2.7-32.4-8.1-67.8-8.1
			c-60.9,0-104.7,40.2-104.7,95.7c0,58.2,45,100.2,107.7,100.2c37.8,0,54-12,63.3-12c3.3,0,4.8,0.9,5.4,1.8h4.5l2.7-43.5H3215.6"/>
		<path id="path78" class="st0" d="M3381.5,72.3h-5.7c-2.4,21.3-8.1,23.7-20.4,23.7h-50.7V32.1c0-13.8,5.1-16.5,16.2-16.5h46.2
			c21,0,27.3,8.1,34.8,33.9h5.4l-4.8-44.7h-159.3v5.7h8.4c24,0,28.2,6.6,28.2,24.6v126.6c0,16.8-3.9,24-24,24h-6.6v5.7h144l2.4-41.7
			h-5.4c-3.9,25.5-11.4,30.9-22.2,30.9h-63.3v-73.8h53.7c10.8,0,15.9,5.1,17.4,22.5h5.7L3381.5,72.3"/>
		<path id="path80" class="st0" d="M3434.9,50.4c6.3-26.7,27.3-42.3,50.7-42.3c20.1,0,41.4,11.7,41.4,35.4
			c0,43.2-96.3,56.4-96.3,108.9c0,24.9,22.8,43.5,53.4,43.5c25.2,0,30.3-7.5,40.8-7.5c2.4,0,3.6,0.6,5.4,3h4.8l5.1-38.1h-5.1
			c-8.4,21.6-27.6,35.4-48.3,35.4c-19.8,0-33.6-11.4-33.6-28.2c0-42.6,96.3-54,96.3-109.2c0-29.4-26.1-51.3-61.2-51.3
			c-16.5,0-37.5,8.1-41.7,8.1c-2.7,0-4.8-1.5-6-3.3h-5.1l-6.3,45.6H3434.9"/>
		<path id="path82" class="st1" d="M2011.9,1218.9c0-138.7,112.5-251.2,251.2-251.2c138.8,0,251.2,112.5,251.2,251.2
			s-112.5,251.2-251.2,251.2C2124.3,1470.1,2011.9,1357.6,2011.9,1218.9"/>
		<path id="path84" class="st2" d="M2514.3,1224.5c0-1.1-4.5-4.9-9.2-7.8c-0.1-0.1-0.2-0.2-0.3-0.2c-6.5-3.5-15.7-6.8-27.1-9.8
			c-11.7-3.1-26.2-5.9-42.1-8.3c-16-2.4-33.7-4.3-52.8-5.9c0,0,0,0,0,0c-24.4-2.2-39.8-3.1-59.3-4.1c-20.7-0.8-42.2-1.3-64.1-1.3
			c0-2.8,0-5.6,0-8.3c0-19.7,0.1-38.4,0.2-56c0.5-96.4,0.6-96.4,3.5-155c138.8,0,251.2,112.5,251.2,251.2
			C2514.3,1218.9,2514.3,1222.5,2514.3,1224.5"/>
		<path id="path86" class="st0" d="M2356.6,993.6L2356.6,993.6L2356.6,993.6"/>
		<path id="path88" class="st0" d="M2259.4,1178.7c0-19.7,0.1-38.4,0.2-56c40.3-38.1,40.3-38.1,57-54.9c4.4,31.9,6.9,70,6.9,112.2
			c0,2.8,0,5.6-0.1,8.3c-25.4-1-42.2-1.3-64.1-1.3C2259.4,1184.2,2259.4,1181.4,2259.4,1178.7"/>
		<path id="path90" class="st0" d="M2351.6,1024.8c-8.8,14.3-16.8,23.7-35,42.8c-8.5-61.2-23.8-98.8-42.5-99.6
			c1.6,0.1,4,0.2,5.6,0.3c2,0.1,4.4,0.3,6.4,0.5C2312.1,971.1,2334.5,991,2351.6,1024.8"/>
		<path id="path92" class="st0" d="M2379.7,1127.4c0,0.4-14.5-75.4-28.1-102.5c7.9-15.2,8.2-21.2,5-31.2
			c24.4,18.5,44.5,46.4,58.4,81C2406.1,1092.8,2400,1102.4,2379.7,1127.4"/>
		<path id="path94" class="st0" d="M2307.8,971.6c5.5,0.9,5.2,1.1,15.3,3.3l6,1.8c18.6,5.7,21.8,8.7,27.6,17.2
			c-16.6-12.5-34.3-20.1-54-23.2L2307.8,971.6"/>
		<path id="path96" class="st0" d="M2419.5,1033.2c36.2,41,58.4,99,58.3,165.1c0,2.8,0,5.6-0.1,8.3c-11.7-3.1-26.2-5.9-42.1-8.3
			c0.2-2.8,0.3-5.6,0.3-8.4c0.1-43-7.2-82.1-20.5-115.1C2422.8,1055.7,2422.9,1047.6,2419.5,1033.2"/>
		<path id="path98" class="st0" d="M2382.7,1192.4c-24.4-2.2-39.8-3.1-59.3-4.1c34.4-35.8,41.8-44.2,56.3-60.9
			c2.1,17.8,3.1,36.7,3.1,56.4C2382.8,1186.6,2382.8,1189.5,2382.7,1192.4"/>
		<path id="path100" class="st0" d="M2208,1457.1c14,5.7,27.5,11.5,54.6,13.1l0,0C2244.2,1468.5,2225.1,1463.4,2208,1457.1"/>
		<path id="path102" class="st3" d="M2431.3,1198.3c-13.1,1.8-24.1,23.9-18.3,46.3c-18.4-12.7-39.1,13.4-36.1,37.6
			c1.6,12.8,10,24.2,24.6,18.9c-6,20.4-13.4,39.8-22.1,57.6c-13-1.7-27.2-3-42.3-4.1c13.4-20.3,0.2-39.2-18.5-36.2
			c-13.6,2.2-26.2,16.4-22.7,33.4c-11-7.6-33.6-4.6-35.8,19.4c-0.6-51.1-0.9-116.4-0.8-184.4c66.8-0.7,145,6.5,176.2,11.3
			c0,0,0-0.1,0,0C2434.2,1198.2,2432.6,1198.2,2431.3,1198.3"/>
		<path id="path104" class="st3" d="M2100.8,1147.9c18.7,7.2,42.2-25.1,33.9-46.7c-3.8-10-13.6-12.7-23.9-6.8
			c5.6-18.8,12.8-36.1,21.4-51.3c13.2-1.8,28-3.4,44.2-4.6c-13,16-2.6,29.2,14.8,28.3c14.9-0.8,34.7-13.2,30.4-30.1
			c13.4,6.1,36.2,1.1,38.9-16.4c-0.6,37.7-1.1,93-1.2,158.3c0,2.8,0,5.5,0,8.3c-21.2-0.1-42.7,0.7-64.1,1.6
			c-45.4,1.9-76.3,4.5-114.3,11c0-0.1,0,0.1,0,0C2100.5,1193,2105.8,1164,2100.8,1147.9"/>
		<path id="path106" class="st3" d="M2382.1,1379.4L2382.1,1379.4c0.1,0,0.1,0,0.2,0h0c0,0,0.1,0,0.1,0c2.4,0.4,4.7,0.8,6.9,1.2
			c14.4,2.6,47,10.4,47,20c0,0,12.8-12.8,22.2-30.7c1.1-1.9,1.8-3.7,2.9-6.5c1.1-3.2,1.8-6.8,1.7-8.6c-0.4-5.4-3.9-5.5-7.5-3.9
			c-0.4,0.1-0.7,0.3-1.1,0.5c-12.9,5.8-17.1,17.7-19.6,22.5c-6.6-2.1-17.4-6.8-26.4-8.5c-1.1-0.2-3-0.7-4.1-0.8
			c10.6-17.6,20.8-38.4,28-58.7c12.7,13,32.5-11.1,33.4-34.4c0.6-13.7-5.6-25.9-18.1-21.5c10-18.5,6.8-45.7-12.2-51.7
			c-3.2,61-13.5,115.1-53.7,180.9l0,0"/>
		<path id="path108" class="st3" d="M2381.9,1379.3L2381.9,1379.3c-32,48.9-57.2,66.7-89.7,79.5c-6.5,2.5-28.5,11.1-29.6,11.4
			l0.1-0.2l0,0c5.7-8.4,17.2-13.3,19.7-14.1c-0.7-3.1-0.1-9.1,10.4-16.8c1.6-1.2,3.2-2.1,4.8-2.9c16.3-8.5,19.9-1.9,20.7,0.8
			c0.1,0.1,0.2,0.1,0.3,0.2c5-3.7,14.7-11.5,25.4-23.6c6.2-7.4,12-13.9,16.4-20.4c-10.1-1.3-23.5-2.5-36.7-3.4
			c-0.7,16-12.3,24-19.6,26.7c-15.9,5.9-21.1-12.8-14.2-26c-12.6,6.8-27.5,0.7-29.6-19.2C2309.9,1371.7,2344.1,1373.9,2381.9,1379.3
			L2381.9,1379.3"/>
		<path id="path110" class="st3" d="M2385,1424.8c-0.1,0.2-0.2,1.1-0.1,1.8c0.1,0.7,0.7,1.2,0.7,1.2s0.3,0.6,1.2,1.2
			c2.6,1.5,10.1,2.2,31.2-12.3c-43.6,34.3-90.5,48.3-130.3,52.3c-5.6,0.6-16,1.1-16,1.1c12.7-1.1,21.3-4.5,23.3-5.2
			c1.6-0.5,2.9-1.4,3.7-2.1c0.1,0,0.1,0,0.1,0c2.5-0.3,5.4-0.8,8.9-1.8c3.9-1.1,10.4-3.5,16.1-6.2c5.8-2.7,14.4-8.8,14.4-12.3
			c-1.3-0.8-1.7-1-5.6,0c14.9-10.6,36.2-30.5,48.8-45.2c8.7,1.7,21.6,3.5,27.5,5.5C2408.5,1402.2,2389.3,1416.6,2385,1424.8"/>
		<path id="path112" class="st3" d="M2129.6,1029.3c-21.6,3.9-34,7.1-42.2,11.3c-1.4,0.7-1.8,0.7-2.1,0.8
			c-0.2,0.1-12.3,12.4-22.9,26.2c-7.7,10-14.2,21.3-14.9,22.3c0.1-0.1,1.8,0,2.8-0.3c11.3-3.8,28.9-34.6,29.1-34.9
			c7-2.6,16.1-5,27.1-7.2c-10.3,15.5-19,33-25.6,52c-15.7-7.9-35.7,33.5-29.3,50.9c1.3,3.6,5.4,11,16.1,3
			c-8,18.4-5.8,46.1,13.5,46.1C2081.4,1138.5,2089.8,1085.9,2129.6,1029.3"/>
		<path id="path114" class="st3" d="M2260.3,1016.9c-2.2-8.7-14.4-17-31.6-10c8.1-10.7,1.1-19.9-13.1-17.3
			c-11.1,2-24.1,10.9-25.2,19.8c-13.6,1.1-26.1,2.4-37.2,3.9c10.5-12.2,22.3-22.3,35-29.7c1.5,0.6,3.9,0.5,11.4-2.2
			c9.6-3.4,18.9-7.9,28.4-11.3c0,0-2,0.3-2,0.3c-7.3,1.1-9.1,1.5-13.2,2.3c-18.5,3.6-50.7,14.2-83.1,56.6h0h0l0,0c39-6,77-8.7,131-9
			C2260.5,1019.3,2260.5,1017.9,2260.3,1016.9"/>
		<path id="path116" class="st2" d="M2262.6,1470.2c-134.7,0-248.1-109.9-250.7-246.5l0.1-0.2c0.1-0.4,1.3-2.9,6.6-6.2l0,0
			c5.3-3.3,13.1-6.9,23.4-9.5c12.8-3.3,26.2-6,38.7-8.1l0.2,0c38-6.5,68.9-9.1,114.3-11c21.4-0.9,42.9-1.7,64.1-1.6
			c0,12.8-0.1,85.8,0.5,156.2c0.1,9.1,0.2,18.6,0.3,28.2C2260.7,1417.3,2261.7,1464,2262.6,1470.2L2262.6,1470.2"/>
		<path id="path118" class="st0" d="M2383,998c-14.2-8-17-8.2-36.1-16c-5.3-2.2-10.3-3.5-15.8-5c33.9,9.1,80.2,47.1,88.4,56.3
			c-4.1-9.1-7.2-15.2-17.2-23.3C2399.5,1007.8,2387.5,1000.6,2383,998"/>
		<path id="path120" class="st0" d="M2042.1,1207.7c-10.5,2.6-18.1,6.2-23.4,9.5c2.8,90.9,53.3,171.5,126.9,215.7
			c-17.4-15.4-25.1-24.7-33.9-45.5C2070.3,1340,2043.9,1276.3,2042.1,1207.7"/>
		<path id="path122" class="st0" d="M2145.7,1433.1c18.4,13.3,28.9,23,58.1,30c20.5,4.9,38.4,7.1,58.7,7.1l0,0
			C2220.2,1468.4,2180.4,1453.9,2145.7,1433.1"/>
		<path id="path124" class="st0" d="M2132.3,1192.7c-18.4,1.8-35.7,4.2-51.3,6.9c1,45.5,10.6,89.2,27.1,127.9
			c6.4-25.4,11.8-39.1,29.7-69.2C2134.6,1237,2132.7,1215,2132.3,1192.7"/>
		<path id="path126" class="st0" d="M2260.2,1371.4c-0.3-27.7-0.5-56.1-0.5-78.1c-0.1-21.7-0.2-37.5-0.2-40.5
			c-24.7,25.9-37.9,40.5-56,63.4c12.1,78.1,34.1,139.8,59.2,154l0,0C2261.7,1462.8,2260.7,1418.4,2260.2,1371.4"/>
		<path id="path128" class="st0" d="M2172,1374.4c-15.8-33.3-27.6-73.2-34.1-116c15.4-22.8,24.8-36.2,55.4-69.6
			c0.4,44.9,4,88.5,10.1,127.7C2185.1,1341.4,2179.2,1353.4,2172,1374.4"/>
		<path id="path130" class="st0" d="M2504.7,1216.5c0.1-2.8,0.1-5.5,0.1-8.3c0.1-88.8-43.2-162.7-111.1-203.6l-1.8-1.3
			c31.9,19.6,72.2,52.7,97.9,107.5c27.5,54,24.5,113.8,24.5,113.8C2512.9,1222,2508.9,1218.9,2504.7,1216.5"/>
		<path id="path132" class="st4" d="M2504.7,1216.5c0.1-2.8,0.1-5.5,0.1-8.3c0.1-88.8-43.2-162.7-111.1-203.6l-1.8-1.3
			c31.9,19.6,72.2,52.7,97.9,107.5c27.5,54,24.5,113.8,24.5,113.8C2512.9,1222,2508.9,1218.9,2504.7,1216.5L2504.7,1216.5z"/>
		<path id="path134" class="st0" d="M2208,1457.1c-36.6-14.4-69.6-39-96.4-69.6c-7.3-22.8-7.3-35.6-3.6-60
			c16.3,38.1,39.1,71.1,66,95.8C2182.3,1437.6,2187.5,1446.2,2208,1457.1"/>
		<path id="path136" class="st0" d="M2171.9,1374.2c-4.5,20.5-4.9,30.9,2,48.8c26.2,24.2,56.4,42.1,88.7,47.1
			C2227.3,1460.7,2195.4,1423.7,2171.9,1374.2"/>
		<path id="path138" class="st0" d="M1960.2,1405.2l1.4-0.7c-2.4-5.1-1.3-7.9,3.6-10.4l20.4-10.2c9.4-4.7,16.5-15.7,8.3-32.1
			c-7.2-14.5-19.1-17.8-29.9-12.4l-22.1,11c-4.8,2.4-6.3,1.4-8.9-3.7l-1.4,0.7l9.7,19.5l1.4-0.7l-0.3-0.7c-2.1-4.2-1.8-6.6,2.6-8.7
			l21.1-10.5c10.2-5.1,19.3-2.1,25,9.2c4.2,8.6,5,19-7.9,25.4l-17.7,8.8c-7.3,3.6-9.1,3.1-12.6-3.1l-1.4,0.7L1960.2,1405.2"/>
		<path id="path140" class="st0" d="M2047.8,1430.3l-63.3-4l27.8-23.4c4.7-3.9,6.5-3.7,11.2,1.8l1.2-1l-12.7-15l-1.2,1.1l0.2,0.3
			c3.4,4,3.1,6.4,0.1,8.9l-31.8,26.8c-2.3-0.6-4.2-1.9-6.2-4.1l-1.2,1l8.6,10.1l57.5,3.7l-25.8,21.7c-3.9,3.3-5.6,2.8-10.1-2.3
			l-1.2,1.1l12.8,15.1l1.2-1c-4.1-4.8-4.1-6.6-1.6-8.7l36.1-30.4L2047.8,1430.3"/>
		<path id="path142" class="st0" d="M2078.6,1457.5l-15.8-13.1l-1,1.2c3.9,3.5,3.9,5.3,0.2,9.6l-23,27.7c-2.9,3.5-4.9,3.5-8.8,0.6
			l-1,1.2l15.8,13.1l1-1.2c-4.1-3.4-4.8-5.5-1.1-9.9l22.9-27.6c3.2-3.8,5.3-4.3,9.8-0.5L2078.6,1457.5"/>
		<path id="path144" class="st0" d="M2109.8,1476.9l-39,30.2c-4.5,3.5-6,4.1-10.5,1.5l-0.8,1.4l20.1,11.8l0.8-1.4
			c-6.6-4.1-7.3-6.6-4-9.1l32.3-25l-6.1,36.9c-0.4,2.5-0.8,4.3-1.4,5.3c-1.3,2.2-3.6,2-8.6-0.9l-0.8,1.4l16.9,9.9l0.8-1.4
			c-3.8-2.2-4.8-5.1-3.9-10.7l7.8-47.8L2109.8,1476.9"/>
		<path id="path146" class="st0" d="M2172,1526.5l-1.5-0.5c-2.6,5.4-4.4,5.6-7.6,4.4l-13.5-4.7l5.9-17c1.2-3.7,2.9-3.9,5.8-2.9
			l12.3,4.2c5.6,1.9,6.5,4.7,6.2,12.2l1.4,0.5l2.8-12.3l-42.5-14.6l-0.5,1.5l2.2,0.8c6.4,2.2,6.9,4.3,5.2,9.1l-11.6,33.8
			c-1.5,4.5-3.2,6.1-8.6,4.2l-1.8-0.6l-0.5,1.5l38.4,13.2l4.5-10.9l-1.5-0.5c-3.4,6.4-5.9,7.2-8.8,6.2l-16.9-5.8l6.8-19.7l14.3,4.9
			c2.9,1,3.8,2.8,2.6,7.6l1.5,0.5L2172,1526.5"/>
		<path id="path148" class="st0" d="M2207.5,1538.3c1.4,0.1,2.5,0.1,4.3,0.3c2.3,0.3,3.6,0.5,5.7,0.9c2.2-1.1,5.4-3.2,9.5-6.5
			l6.2-4.9c8.4-6.6,12.5-9.3,27.1-6.9l-0.2,1.5c-6.5-0.4-12,2.1-17.6,6.5l-7.4,5.9c-4.4,3.5-7.2,5.5-10.6,7.6
			c6.6,2.8,10.3,8.7,9.6,14.9c-1,8.6-8.8,14.1-24.3,12.2c-5.4-0.6-7.1-0.9-10.6-1.5s-8.5-1.5-10.5-1.8l0.2-1.6l1.9,0.2
			c4.9,0.6,6.5-0.8,7.1-6l4.2-35.4c0.6-5.6-0.9-7.2-5.9-7.8l-1.4-0.2l0.2-1.6l23.8,2.8l-0.2,1.6l-1.9-0.2c-4.7-0.6-6.9,0.5-7.5,5.5
			L2207.5,1538.3z M2204.1,1567.4c1.5,0.3,2.6,0.5,4.2,0.7c12.9,1.5,17.2-4.1,18.1-11.9c1.2-10.1-4.5-14.8-13.8-15.8
			c-1.9-0.2-3.2-0.5-5.2-0.5L2204.1,1567.4"/>
		<path id="path150" class="st0" d="M2272.6,1533.4c1.2-7.7,6.8-12.5,13.3-13c5.6-0.4,11.9,2.4,12.4,9c0.9,12.2-25.9,18-24.7,32.8
			c0.6,7,7.4,11.7,16,11.1c7.1-0.6,8.4-2.8,11.3-3c0.7-0.1,1,0.1,1.6,0.7l1.3-0.1l0.6-10.8l-1.4,0.1c-1.9,6.2-7,10.5-12.8,11
			c-5.6,0.4-9.7-2.5-10.1-7.2c-0.9-11.9,25.9-17.3,24.7-32.8c-0.6-8.2-8.4-13.8-18.4-13.1c-4.6,0.4-10.4,3.1-11.5,3.2
			c-0.8,0.1-1.4-0.3-1.8-0.8l-1.4,0.1l-0.8,13L2272.6,1533.4"/>
		<path id="path152" class="st0" d="M2337.6,1511.2l-20.1,4.3l0.3,1.6c5.2-0.9,6.6,0.2,7.7,5.8l7.7,35.2c1,4.5-0.3,6.1-4.9,7.3
			l0.3,1.6l20.1-4.4l-0.4-1.6c-5.2,1.1-7.3,0.3-8.5-5.2l-7.6-35.1c-1.1-4.9-0.1-6.8,5.6-8.1L2337.6,1511.2"/>
		<path id="path154" class="st0" d="M2380.3,1505.2c-1.7-4.3-0.9-6.3,4-8.2l2.9-1.2l-0.6-1.5l-24.8,9.8l0.6,1.5l2.9-1.1
			c4.8-1.9,6.8-1,8.5,3.2l15.4,38.9l-13.7,5.4c-3.2,1.2-5.3,0-9.2-6.5l-1.4,0.6l6.3,12.2l1.5-0.6c-0.1-0.5,0.1-1,0.5-1.3
			c0.4-0.3,0.9-0.6,1.5-0.9l37.8-15c1.1-0.4,2.4-0.7,2.9,0.2l1.5-0.6l-3.8-13.2l-1.4,0.6c1.6,7.4,0.9,9.7-2.3,11l-13.7,5.4
			L2380.3,1505.2"/>
		<path id="path156" class="st0" d="M2466.5,1499.6c4.9,2.4,4.3,4.4-0.2,7.4l0.9,1.4l15.9-10.6l-0.9-1.3c-5,2.9-8.3,2.3-12.5,0.3
			l-24.9-12l-7-10.5c-2.5-3.7-2.2-6.1,2.1-9l0.9-0.6l-0.9-1.3l-19.3,12.9l0.9,1.3l1.4-0.9c4.4-2.9,6.7-2.2,9,1.3l6.6,9.9l0.5,27.9
			c0.2,7.7-0.8,9.8-5.2,13l0.9,1.3l18.7-12.5l-0.9-1.3c-5.5,3.7-6.7,2.6-6.8-2.1l-0.4-24.9L2466.5,1499.6"/>
		<path id="path158" class="st0" d="M2543.5,1394.2c12.1,9.2,12.5,26.8,2.8,39.5c-10.9,14.3-28.3,17.4-41.7,7.2
			c-12.6-9.6-12.6-27.2-2.5-40.3C2512,1387.5,2529.8,1383.9,2543.5,1394.2z M2536.4,1398.9c-9.5-7.3-23.2-9.4-31.6,1.5
			c-8.2,10.8-5.9,26.2,6.7,35.7c8.1,6.2,22.7,9.9,31.7-2C2551.7,1423.1,2548.9,1408.4,2536.4,1398.9"/>
		<path id="path160" class="st0" d="M2561.2,1341.3l-0.6,1.3c4.4,2.3,5,4.5,3.2,8.2l-6.8,14.1l-16.7-8c-4.3-2-5.5-3.8-2.7-9.5
			l-1.5-0.7l-8.9,18.6l1.5,0.7c2.6-4.6,4-4.9,10.1-2l29.9,14.3c4.9,2.3,6.9,3.8,4.4,9.2l1.5,0.7l16.3-34.2l-9-4.3l-0.6,1.3
			c4.4,2.2,5.5,4.6,3.2,9.3l-6.9,14.5l-17.9-8.5l7.2-15.1c1.4-2.8,3.6-3.4,7-2.1l0.6-1.3L2561.2,1341.3"/>
		<path id="path162" class="st0" d="M1968.8,1010.1l30.5,56.2l-0.1,0.2l-41.1-26.2c-4.7-3-3.2-7-0.5-11.1l-1.7-1.2l-13.2,18.2
			l1.7,1.2c4.6-6.4,6.6-6.2,14.9-0.8l35.6,22.6c6,3.8,7.5,5.2,3.9,10.8l1.6,1.2l9.6-13.2l-28.8-53.1l59.3,11l9.3-12.9l-1.5-1.2
			c-3.5,4.1-4.8,5.7-7.6,3.3l-37.6-31.5c-7.6-6.4-7.1-7.1-2.5-13.4l-1.7-1.2l-16.3,22.5l1.7,1.2c3-4.1,7-7.3,11.4-3.6l37.4,31
			l-0.1,0.2l-62.5-12.1L1968.8,1010.1"/>
		<path id="path164" class="st0" d="M2074.6,946.7l-5.8-20.2c-0.3-1.1-0.6-2.9-1.6-4.3c-1.8-2.5-4-1.6-9,2l-2.3,1.7l-1.2-1.6
			l23.9-17.6l1.2,1.7c-4.3,3.2-5.5,5.4-3.9,11.3l17.3,61.7l-7.6,5.6l-0.6-2.5l-47.7-31.6c-8.3-5.5-10-5.8-15.7-1.7l-1.2-1.7
			l20.1-14.8l1.2,1.6l-1.4,1c-4.8,3.5-6.4,6.1-4.7,8.4c0.9,1.2,4,3,5.8,4.2l15.1,10L2074.6,946.7z M2075.9,951.6l-15.1,11.1
			l22.3,14.9L2075.9,951.6"/>
		<path id="path166" class="st0" d="M2131.4,912.8c1.6-0.7,2.9-1.2,5.1-2c2.8-1,4.4-1.4,7-2.2c1.9-2.5,4.4-6.7,7.3-12.8l4.3-9.1
			c5.9-12.3,9.1-17.8,27.2-23.3l0.7,1.8c-7.7,3.3-12.6,9.3-16.4,17.4l-5.2,10.9c-3.1,6.5-5.1,10.4-7.8,14.7
			c9.2-0.5,16.7,4.1,19.4,11.7c3.7,10.4-2,21.1-20.9,27.8c-6.6,2.4-8.7,3-12.9,4.2c-4.3,1.3-10.6,3.1-13.1,3.9l-0.7-2l2.2-0.8
			c5.9-2.1,7-4.5,4.7-10.9l-15.2-42.9c-2.4-6.8-5.1-7.7-11.1-5.6l-1.7,0.6l-0.7-1.9l28.8-10.2l0.7,1.9l-2.4,0.8
			c-5.7,2-7.6,4.4-5.4,10.5L2131.4,912.8z M2143.9,948.2c1.9-0.5,3.2-0.9,5.1-1.6c15.7-5.6,17.4-14.4,14-23.9
			c-4.3-12.2-13.5-14.3-24.8-10.4c-2.4,0.8-3.9,1.3-6.3,2.4L2143.9,948.2"/>
		<path id="path168" class="st0" d="M2254,915.1c4,5.6,2.1,7.6-4.8,8.2l0.2,2l24.4-2.1l-0.2-2c-7.4,0.1-10.8-2.6-14.2-7.4
			l-20.4-28.8l-1.4-16.1c-0.5-5.7,1.4-8.1,7.9-8.7l1.4-0.1l-0.2-2l-29.6,2.5l0.2,2l2-0.2c6.7-0.5,8.9,1.8,9.3,7l1.3,15.2l-16.6,31.6
			c-4.6,8.7-6.9,10.4-13.9,11.3l0.2,2.1l28.7-2.5l-0.2-2c-8.4,0.7-9.1-1.3-6.3-6.5l15-28.1L2254,915.1"/>
		<path id="path170" class="st0" d="M2343.9,866.6l-47.7-8.1l-0.3,2l3.5,0.6c4.9,0.8,6.5,2.8,5.5,8.2l-8,47.2
			c-1,5.6-3.1,7.7-9.8,6.6l-1.5-0.3l-0.3,2l31.4,5.3l0.4-2l-3.9-0.7c-6.9-1.2-8.6-2.2-7.5-8.8l8.3-49.2c0.5-2.8,1.8-3.8,4.9-3.2
			l15.7,2.6c6.3,1.1,7.8,3.8,12.9,14.2l1.9,0.3L2343.9,866.6"/>
		<path id="path172" class="st0" d="M2399.1,916.9l14.3-15.4c0.8-0.9,2.1-2.1,2.8-3.7c1.1-2.8-0.7-4.3-6.4-6.6l-2.6-1.1l0.8-1.9
			l27.4,11.4l-0.8,1.9c-5-2.1-7.5-1.9-11.7,2.5l-44,46.7l-8.7-3.6l1.8-1.8l2.6-57.2c0.4-10-0.2-11.6-6.7-14.4l0.8-1.9l23.1,9.6
			l-0.8,1.9l-1.6-0.7c-5.5-2.3-8.5-2.4-9.6,0.3c-0.6,1.4-0.5,5-0.6,7.1l-0.8,18.1L2399.1,916.9z M2395.5,920.6l-17.2-7.2l-1.2,26.8
			L2395.5,920.6"/>
		<path id="path174" class="st0" d="M2516,958.8l-80.5,9.5l29.6-35.8c4.9-6,7.3-6.1,14.4-0.3l1.3-1.6l-19.3-16l-1.3,1.6l0.3,0.3
			c5.1,4.3,5.4,7.4,2.2,11.2l-33.9,41c-3-0.2-5.8-1.4-8.7-3.7l-1.3,1.6l13.1,10.8l73.1-8.5l-27.4,33.2c-4.2,5.1-6.5,4.7-13.3-0.6
			l-1.3,1.6l19.5,16.1l1.3-1.6c-6.3-5.2-6.7-7.4-4-10.6l38.4-46.5L2516,958.8"/>
		<path id="path176" class="st0" d="M2542.3,1004.2c5.2-3.4,5.2-6.5,2-11.4l-1-1.6l1.7-1.1l18.8,29.1c14.8,23,5.3,44.2-8.4,53.1
			c-15,9.7-34.1,6.9-49.6-17c-3.1-4.7-6.5-10.3-9.6-15.5c-3-5.1-5.7-9.7-7.7-13.2l1.7-1.1l1.1,1.8c3.5,5.3,5.9,6,11.8,2.2
			L2542.3,1004.2z M2500.2,1042.1c0.6,1.2,1.9,3.8,4.4,7.5c8.2,12.7,15.6,17.1,22.4,18.6c8.8,1.9,17.5-1,24.2-5.3
			c9.4-6,13.6-14.7,14.7-20.2c2-9.3,0.4-15.5-7.4-27.6c-4.6-7.2-6.1-6.7-9.8-4.2L2500.2,1042.1"/>
		<path id="path178" class="st0" d="M1916.3,1240v-46.3c0-2.4,0.5-3.1,3-3.1h4.5v-1.5h-20.1v1.5h4.3c2.6,0,3,0.7,3,3.1v39.9
			c-2.6-2.2-7-5.2-10-6.6l-0.6,1.1c4.7,3.1,11.2,9.1,13.2,11.8L1916.3,1240"/>
		<path id="path180" class="st0" d="M1961.3,1228.5c0-4.6-2.2-8.2-6.7-11c-10.3,4.4-12.7,7.6-12.7,12c0,5,4.3,9,9.8,9
			C1957.2,1238.5,1961.3,1234.3,1961.3,1228.5z M1966.1,1228.5c0,6.4-6.4,11.5-14.4,11.5c-7.9,0-14.5-5.9-14.5-12.9
			c0-5.4,3.4-9.5,10.9-12.8c-7.8-3.1-11.6-7.5-11.6-13.1c0-7.3,6.8-13.1,15.5-13.1c8.9,0,15.8,6.4,15.8,14.7c0,6.2-3.6,10.4-12,14.1
			C1962.7,1219.6,1966.1,1223.4,1966.1,1228.5L1966.1,1228.5z M1962.6,1200.5c0-6.2-4.6-11-10.6-11c-6.1,0-10.6,5-10.6,11.8
			c0,5.2,2.7,9.2,8.2,12.2C1958.9,1209.2,1962.6,1205.8,1962.6,1200.5"/>
		<path id="path182" class="st0" d="M2559.7,1234.3h18.9c1.4,0,1.9,0.3,2.3,1h1.5l-0.9-6.2h-20.2l-0.6-14.3c2.5,1.4,5.3,2,8.6,2
			c8.9,0,16.4-7.4,16.4-16.4c0-9.7-8-17-18.7-17c-6.4,0-11.6,2.2-11.6,5c0,1.3,1.2,2.5,2.6,2.5c4.3,0,5.8-5.6,10.9-5.6
			c5.9,0,10.9,6.2,10.9,13.4c0,7.4-5.1,12.9-11.9,12.9c-2.9,0-6-1.2-8.4-3.2l-0.8,0.6L2559.7,1234.3"/>
		<path id="path184" class="st0" d="M2621,1235.3c-16.7-4.7-26.8-16.4-26.8-31.2c0-12.3,6.9-20.8,16.7-20.8
			c8.5,0,15.5,7.3,15.5,16.1c0,8.2-6.3,14.7-14.1,14.7c-3.9,0-7-1.3-11.3-4.6c1.7,11.7,8.4,19.5,20.8,24.6L2621,1235.3z
			 M2620.5,1198.7c0-9.1-3.8-14.1-9.4-14.1c-5.1,0-10.9,4.4-10.9,17.9c0,2.7,0.2,3.8,0.4,5c4.9,3.9,8.5,4.8,10.5,4.8
			C2616.5,1212.2,2620.5,1207.2,2620.5,1198.7"/>
		<path id="path186" class="st0" d="M1378.2,4416.3c-5.6,15.8-20.2,26.2-38.8,26.2c-28.4,0-46.1-20.6-46.1-49.1
			c0-30.8,22.1-53.4,47.9-53.4c13.4,0,29.9,4.6,41.5,25.2h3.2c-2.2-7.6-6.8-18.2-10.9-24.8c-10.9,1.5-18.3-4.6-38.4-4.6
			c-34.5,0-59.3,22.8-59.3,54.2c0,33,25.5,56.8,61,56.8c21.4,0,30.6-6.8,35.9-6.8c1.9,0,2.7,0.5,3.1,1h2.6l1.5-24.6H1378.2"/>
		<path id="path188" class="st0" d="M1495,4442.5c-29.9,0-41.8-27.9-41.8-48.3c0-31.8,21.6-54.2,49-54.2c27.7,0,41,24.5,41,48.6
			C1543.1,4420.2,1523,4442.5,1495,4442.5z M1498.6,4335.8c-33.3,0-61.4,21.4-61.4,53.2c0,33.8,26,57.8,62.2,57.8
			c32.1,0,59.7-21.9,59.7-52.5C1559.1,4359.9,1531.5,4335.8,1498.6,4335.8"/>
		<path id="path190" class="st0" d="M1683.2,4338.5h-76v3.2h5.6c7.8,0,10.7,2.5,10.7,11.2v75.3c0,9-2.7,12.8-13.4,12.8h-2.4v3.2
			h50.2v-3.2h-6.3c-11.1,0-13.9-1.2-13.9-11.7v-78.4c0-4.6,1.9-6.3,6.8-6.3h25c10,0,13.1,3.9,23.8,18.7h3.1L1683.2,4338.5"/>
		<path id="path192" class="st0" d="M1812.7,4338.5h-76v3.2h5.6c7.8,0,10.7,2.5,10.7,11.2v75.3c0,9-2.7,12.8-13.4,12.8h-2.4v3.2
			h50.1v-3.2h-6.3c-11,0-13.9-1.2-13.9-11.7v-78.4c0-4.6,1.9-6.3,6.8-6.3h25c10,0,13.1,3.9,23.8,18.7h3.1L1812.7,4338.5"/>
		<path id="path194" class="st0" d="M1941.7,4376.7h-3.2c-1.4,12.1-4.6,13.4-11.6,13.4h-28.7v-36.2c0-7.8,2.9-9.4,9.2-9.4h26.2
			c11.9,0,15.5,4.6,19.7,19.2h3.1l-2.7-25.3h-90.3v3.2h4.8c13.6,0,16,3.7,16,13.9v71.7c0,9.5-2.2,13.6-13.6,13.6h-3.7v3.2h81.6
			l1.4-23.6h-3.1c-2.2,14.4-6.5,17.5-12.6,17.5h-35.9v-41.8h30.4c6.1,0,9,2.9,9.9,12.8h3.2L1941.7,4376.7"/>
		<path id="path196" class="st0" d="M2109.4,4346.5c-16.8-8.7-38.4-10.7-45.6-10.7c-37.2,0-54.6,28.7-54.6,53.5
			c0,25.5,17.8,57.5,59.3,57.5c18.2,0,30.3-5.8,33.8-5.8c1.5,0,2.9,0.3,3.9,1.2h2.4v-27.5h-3.4c-4.6,21.2-19,27.9-34.9,27.9
			c-29.9,0-45.2-24.8-45.2-52.2c0-34.8,24.5-50.3,44-50.3c7.8,0,16.5,1.7,26,6.5v21.4c0,9.7-3.4,12.9-13.6,12.9h-6.3v3.1h45.9v-3.1
			c-8.5-0.5-11.9-3.4-11.9-10.7L2109.4,4346.5"/>
		<path id="path198" class="st0" d="M2239.9,4376.7h-3.2c-1.4,12.1-4.6,13.4-11.6,13.4h-28.7v-36.2c0-7.8,2.9-9.4,9.2-9.4h26.2
			c11.9,0,15.5,4.6,19.7,19.2h3.1l-2.7-25.3h-90.3v3.2h4.8c13.6,0,16,3.7,16,13.9v71.7c0,9.5-2.2,13.6-13.6,13.6h-3.7v3.2h81.6
			l1.4-23.6h-3.1c-2.2,14.4-6.5,17.5-12.6,17.5h-35.9v-41.8h30.4c6.1,0,9,2.9,9.9,12.8h3.2L2239.9,4376.7"/>
		<path id="path200" class="st0" d="M2447.5,4442.5c-29.9,0-41.8-27.9-41.8-48.3c0-31.8,21.6-54.2,49-54.2c27.7,0,41,24.5,41,48.6
			C2495.6,4420.2,2475.5,4442.5,2447.5,4442.5L2447.5,4442.5z M2451.1,4335.8c-33.3,0-61.4,21.4-61.4,53.2c0,33.8,26,57.8,62.2,57.8
			c32.1,0,59.7-21.9,59.7-52.5C2511.6,4359.9,2484,4335.8,2451.1,4335.8"/>
		<path id="path202" class="st0" d="M2636.9,4379.1h-2.9c-0.3,9.9-3.9,12.9-12.1,12.9h-31.4v-37.2c0-9.5,2.1-13.1,14.8-13.1v-3.2
			h-41.3v3.2c10.5,0.7,12.4,2.9,12.4,16.7v66.6c0,10.9-0.9,15.8-12.8,16v3.2h76.1v-20.1h-2.9c-0.2,9.9-3.6,13.9-14.1,13.9h-32.3v-40
			h33.7c6.3,0,9.3,3.6,9.9,10.9h2.9L2636.9,4379.1"/>
		<path id="path204" class="st0" d="M1329.7,4097.5c0-22.8,9-30.9,34.2-30.9c39.6,0,51,24.6,51,48c0,23.1-17.7,46.8-52.8,46.8h-32.4
			L1329.7,4097.5z M1329.7,4167.1h32.7c28.8,0,43.2,11.4,43.2,34.8c0,21-12.6,40.2-49.5,40.2c-6.6,0-18.9-0.6-26.4-0.9
			L1329.7,4167.1z M1304.8,4213.3c0,17.1-2.1,26.1-23.1,26.1h-10.5v5.7c8.4,0.3,29.1,1.5,37.8,1.8c16.5,0.6,39.3,0.9,45,0.9
			c26.4,0,49.5-3.9,60.3-11.7c12.3-8.7,18.3-18.9,18.3-33.3c0-17.1-14.1-33-34.2-36.6v-0.6c28.2-8.4,44.7-26.7,44.7-50.1
			c0-23.7-16.5-57-64.8-57h-109.8v5.7h6.9c24.6,0,29.4,5.7,29.4,24.6L1304.8,4213.3"/>
		<path id="path206" class="st0" d="M1602.7,4126h-5.7c-2.4,21.3-8.1,23.7-20.4,23.7h-50.7v-63.9c0-13.8,5.1-16.5,16.2-16.5h46.2
			c21,0,27.3,8.1,34.8,33.9h5.4l-4.8-44.7h-159.3v5.7h8.4c24,0,28.2,6.6,28.2,24.6v126.6c0,16.8-3.9,24-24,24h-6.6v5.7h144l2.4-41.7
			h-5.4c-3.9,25.5-11.4,30.9-22.2,30.9h-63.3v-73.8h53.7c10.8,0,15.9,5.1,17.4,22.5h5.7L1602.7,4126"/>
		<path id="path208" class="st0" d="M1705.6,4147.6v-57c0-19.5,3.9-26.4,24-26.4h0.9v-5.7h-75.3v5.7h1.8c17.7,0,23.7,4.8,23.7,21.9
			v132c0,15.6-5.1,20.1-21.6,21.3v5.7h71.4v-5.7c-21.3,0-24.9-5.7-24.9-28.8v-52.2h117.6v59.1c0,15.9-5.1,21.9-23.7,21.9h-5.7v5.7
			h77.1v-5.7c-18-0.6-22.8-6-22.8-24.6v-124.5c0-21.3,6-26.1,24-26.1h3v-5.7h-84.9v5.7h9.3c19.5,0,23.7,6.9,23.7,22.5v60.9
			L1705.6,4147.6"/>
		<path id="path210" class="st0" d="M1970.2,4224.4l-25.5-69.9h51.9L1970.2,4224.4z M1939.6,4141.3l-17.4-47.1
			c-2.1-5.7-6-14.7-6-18.9c0-8.1,7.8-11.1,24.3-11.1h4.8v-5.7H1876v5.7c19.5,0.3,22.8,3.6,32.4,29.7L1963,4243l-2.7,6.6h26.1
			l62.7-166.5c6-15.9,12.3-18.9,27.3-18.9v-5.7h-82.5v5.7h7.8c17.1,0,23.4,1.8,23.4,10.2c0,4.8-2.1,9.3-3.3,12.3l-20.1,54.6
			L1939.6,4141.3"/>
		<path id="path212" class="st0" d="M2140.7,4053.7l-65.1,162.3c-7.5,18.9-11.1,23.4-29.4,23.4v5.7h82.5v-5.7
			c-27.6-0.6-34.2-6.9-28.5-20.7l54-134.4l47.4,123.9c3.3,8.4,5.1,14.4,5.1,18.6c0,9-7.5,12.6-27.9,12.6v5.7h69.6v-5.7
			c-15.6,0-23.7-7.2-30.9-25.8l-61.8-159.9L2140.7,4053.7"/>
		<path id="path214" class="st0" d="M2324,4058.5h-72.9v5.7c18.6,0.9,22.5,5.7,22.5,25.8v127.8c0,16.2-5.7,20.7-22.5,21.6v5.7h72.9
			v-5.7c-18.9,0-25.5-4.2-25.5-24.3v-127.2c0-17.7,4.8-23.7,25.5-23.7V4058.5"/>
		<path id="path216" class="st0" d="M2447.9,4242.1c-52.8,0-73.8-49.2-73.8-85.2c0-56.1,38.1-95.7,86.4-95.7
			c48.9,0,72.3,43.2,72.3,85.8C2532.8,4202.8,2497.4,4242.1,2447.9,4242.1L2447.9,4242.1z M2454.2,4053.7
			c-58.8,0-108.3,37.8-108.3,93.9c0,59.7,45.9,102,109.8,102c56.7,0,105.3-38.7,105.3-92.7C2561,4096.3,2512.4,4053.7,2454.2,4053.7
			"/>
		<path id="path218" class="st0" d="M2628.1,4144.7c7.1-0.9,11.5-0.6,18.3-0.6c32.7,0,54.3,13.9,54.3,49.3
			c0,27.4-12.4,48.7-57.8,48.7c-5.6,0-9.4,0-14.8-0.6V4144.7z M2628.1,4089.2c0-17.7,7.1-22.1,23.6-22.1h6.8v-5.6H2575v5.6h5
			c17.4,0,23.6,4.7,23.6,24.5v124.2c0,18.3-5,23.6-22.1,23.6h-6.5v5.6c7.1,0,25.1,1.2,37.2,1.8c12.1,0.6,18,0.9,37.2,0.9
			c54.6,0,79.1-22.4,79.1-52.5c0-22.1-15-40.7-39.2-47.8c10.9-8.5,19.8-16.8,33.6-30.7l23.3-23.3c17.4-17.4,35.4-28.3,58.1-29.8
			v-5.3c-51.6-2.4-64.9,8.9-91.1,35.1l-19.5,19.5c-13,13-23.3,21.5-30.4,26.2c-7.4-0.3-12.1-0.6-20.1-0.6c-6.5,0-10.3,0.3-15.1,0.6
			L2628.1,4089.2"/>
		<path id="path220" class="st0" d="M2897.5,4224.4l-25.5-69.9h51.9L2897.5,4224.4z M2866.9,4141.3l-17.4-47.1
			c-2.1-5.7-6-14.7-6-18.9c0-8.1,7.8-11.1,24.3-11.1h4.8v-5.7h-69.3v5.7c19.5,0.3,22.8,3.6,32.4,29.7l54.6,149.1l-2.7,6.6h26.1
			l62.7-166.5c6-15.9,12.3-18.9,27.3-18.9v-5.7h-82.5v5.7h7.8c17.1,0,23.4,1.8,23.4,10.2c0,4.8-2.1,9.3-3.3,12.3l-20.1,54.6
			L2866.9,4141.3"/>
		<path id="path222" class="st0" d="M3136.3,4058.5h-134.1v5.7h9.9c13.8,0,18.9,4.5,18.9,19.8v132.9c0,15.9-4.8,22.5-23.7,22.5h-4.2
			v5.7h88.5v-5.7h-11.1c-19.5,0-24.6-2.1-24.6-20.7v-138.3c0-8.1,3.3-11.1,12-11.1h44.1c17.7,0,23.1,6.9,42,33h5.4L3136.3,4058.5"/>
		<path id="path224" class="st0" d="M3315.1,4227.4c-12.3,0-19.8-8.4-19.8-21.6c0-12.6,7.5-24.9,22.2-36
			c13.8,8.1,19.5,17.4,19.5,32.4C3337,4217.5,3328.3,4227.4,3315.1,4227.4L3315.1,4227.4z M3306.1,4069.3
			c17.4,0,39.9,11.7,52.8,27.3c-13.2,22.2-31.8,42-57,59.4c-22.8-15.9-32.1-30-32.1-48.6C3269.8,4084.6,3284.5,4069.3,3306.1,4069.3
			L3306.1,4069.3z M3447.7,4183.9v-5.4c-16.8,0-21.3-1.5-25.5-5.7c-6-6-21-36.9-45-64.8c16.5-25.5,21.6-43.5,36-43.5
			c6,0,13.5,3.3,23.4,10.2l2.7-4.8c-12.9-10.2-25.5-15.6-36.9-15.6c-18.6,0-23.7,6.9-40.2,37.2c-22.2-23.7-47.1-37.2-68.4-37.2
			c-27.3,0-48.6,21.6-48.6,49.5c0,24.6,14.7,40.5,52.5,55.8c-12.9,11.1-21.3,26.1-21.3,39c0,21,16.2,34.8,40.8,34.8
			c22.2,0,38.1-12,38.1-29.1c0-13.8-12-27.3-33.9-38.1c19.5-13.2,37.8-31.5,52.2-53.1c14.1,17.7,37.5,51.3,37.5,59.4
			c0,4.2-3.3,6-16.5,6v5.4L3447.7,4183.9"/>
		<path id="path226" class="st0" d="M1287.5,3824.1c6.3-26.7,27.3-42.3,50.7-42.3c20.1,0,41.4,11.7,41.4,35.4
			c0,43.2-96.3,56.4-96.3,108.9c0,24.9,22.8,43.5,53.4,43.5c25.2,0,30.3-7.5,40.8-7.5c2.4,0,3.6,0.6,5.4,3h4.8l5.1-38.1h-5.1
			c-8.4,21.6-27.6,35.4-48.3,35.4c-19.8,0-33.6-11.4-33.6-28.2c0-42.6,96.3-54,96.3-109.2c0-29.4-26.1-51.3-61.2-51.3
			c-16.5,0-37.5,8.1-41.7,8.1c-2.7,0-4.8-1.5-6-3.3h-5.1l-6.3,45.6L1287.5,3824.1"/>
		<path id="path228" class="st0" d="M1527.4,3962.1c-52.8,0-73.8-49.2-73.8-85.2c0-56.1,38.1-95.7,86.4-95.7
			c48.9,0,72.3,43.2,72.3,85.8C1612.3,3922.8,1576.9,3962.1,1527.4,3962.1L1527.4,3962.1z M1533.7,3773.7
			c-58.8,0-108.3,37.8-108.3,93.9c0,59.7,45.9,102,109.8,102c56.7,0,105.3-38.7,105.3-92.7
			C1640.5,3816.3,1591.9,3773.7,1533.7,3773.7"/>
		<path id="path230" class="st0" d="M1849.9,3915.9c-9.9,27.9-35.7,46.2-68.4,46.2c-50.1,0-81.3-36.3-81.3-86.7
			c0-54.3,39-94.2,84.6-94.2c23.7,0,52.8,8.1,73.2,44.4h5.7c-3.9-13.5-12-32.1-19.2-43.8c-19.2,2.7-32.4-8.1-67.8-8.1
			c-60.9,0-104.7,40.2-104.7,95.7c0,58.2,45,100.2,107.7,100.2c37.8,0,54-12,63.3-12c3.3,0,4.8,0.9,5.4,1.8h4.5l2.7-43.5
			L1849.9,3915.9"/>
		<path id="path232" class="st0" d="M1961.5,3778.5h-72.9v5.7c18.6,0.9,22.5,5.7,22.5,25.8v127.8c0,16.2-5.7,20.7-22.5,21.6v5.7
			h72.9v-5.7c-18.9,0-25.5-4.2-25.5-24.3v-127.2c0-17.7,4.8-23.7,25.5-23.7V3778.5"/>
		<path id="path234" class="st0" d="M2076.4,3944.4l-25.5-69.9h51.9L2076.4,3944.4z M2045.8,3861.3l-17.4-47.1
			c-2.1-5.7-6-14.7-6-18.9c0-8.1,7.8-11.1,24.3-11.1h4.8v-5.7h-69.3v5.7c19.5,0.3,22.8,3.6,32.4,29.7l54.6,149.1l-2.7,6.6h26.1
			l62.7-166.5c6-15.9,12.3-18.9,27.3-18.9v-5.7h-82.5v5.7h7.8c17.1,0,23.4,1.8,23.4,10.2c0,4.8-2.1,9.3-3.3,12.3l-20.1,54.6
			L2045.8,3861.3"/>
		<path id="path236" class="st0" d="M2315.2,3778.5h-134.1v5.7h9.9c13.8,0,18.9,4.5,18.9,19.8v132.9c0,15.9-4.8,22.5-23.7,22.5h-4.2
			v5.7h88.5v-5.7h-11.1c-19.5,0-24.6-2.1-24.6-20.7v-138.3c0-8.1,3.3-11.1,12-11.1h44.1c17.7,0,23.1,6.9,42,33h5.4L2315.2,3778.5"/>
		<path id="path238" class="st0" d="M2443,3824.1c6.3-26.7,27.3-42.3,50.7-42.3c20.1,0,41.4,11.7,41.4,35.4
			c0,43.2-96.3,56.4-96.3,108.9c0,24.9,22.8,43.5,53.4,43.5c25.2,0,30.3-7.5,40.8-7.5c2.4,0,3.6,0.6,5.4,3h4.8l5.1-38.1h-5.1
			c-8.4,21.6-27.6,35.4-48.3,35.4c-19.8,0-33.6-11.4-33.6-28.2c0-42.6,96.3-54,96.3-109.2c0-29.4-26.1-51.3-61.2-51.3
			c-16.5,0-37.5,8.1-41.7,8.1c-2.7,0-4.8-1.5-6-3.3h-5.1l-6.3,45.6L2443,3824.1"/>
		<path id="path240" class="st0" d="M2758.6,3915.9c-9.9,27.9-35.7,46.2-68.4,46.2c-50.1,0-81.3-36.3-81.3-86.7
			c0-54.3,39-94.2,84.6-94.2c23.7,0,52.8,8.1,73.2,44.4h5.7c-3.9-13.5-12-32.1-19.2-43.8c-19.2,2.7-32.4-8.1-67.8-8.1
			c-60.9,0-104.7,40.2-104.7,95.7c0,58.2,45,100.2,107.7,100.2c37.8,0,54-12,63.3-12c3.3,0,4.8,0.9,5.4,1.8h4.5l2.7-43.5
			L2758.6,3915.9"/>
		<path id="path242" class="st0" d="M2870.2,3778.5h-72.9v5.7c18.6,0.9,22.5,5.7,22.5,25.8v127.8c0,16.2-5.7,20.7-22.5,21.6v5.7
			h72.9v-5.7c-18.9,0-25.5-4.2-25.5-24.3v-127.2c0-17.7,4.8-23.7,25.5-23.7V3778.5"/>
		<path id="path244" class="st0" d="M3031.9,3846h-5.7c-2.4,21.3-8.1,23.7-20.4,23.7h-50.7v-63.9c0-13.8,5.1-16.5,16.2-16.5h46.2
			c21,0,27.3,8.1,34.8,33.9h5.4l-4.8-44.7h-159.3v5.7h8.4c24,0,28.2,6.6,28.2,24.6v126.6c0,16.8-3.9,24-24,24h-6.6v5.7h144l2.4-41.7
			h-5.4c-3.9,25.5-11.4,30.9-22.2,30.9h-63.3v-73.8h53.7c10.8,0,15.9,5.1,17.4,22.5h5.7L3031.9,3846"/>
		<path id="path246" class="st0" d="M3280.6,3776.4L3125.2,3939v-128.7c0-21.6,4.8-26.1,30.3-26.1v-5.7h-69.6v5.7h1.2
			c18.6,0,24.6,6.3,24.6,20.1v147.6c-6.9,4.8-14.7,7.2-25.2,7.5v5.7h47.1l141.3-147.3v119.4c0,18.3-5.4,21.6-29.4,22.2v5.7h70.2
			v-5.7c-22.5,0-27.3-3.9-27.3-15.6v-167.4H3280.6"/>
		<path id="path248" class="st0" d="M3505.3,3915.9c-9.9,27.9-35.7,46.2-68.4,46.2c-50.1,0-81.3-36.3-81.3-86.7
			c0-54.3,39-94.2,84.6-94.2c23.7,0,52.8,8.1,73.2,44.4h5.7c-3.9-13.5-12-32.1-19.2-43.8c-19.2,2.7-32.4-8.1-67.8-8.1
			c-60.9,0-104.7,40.2-104.7,95.7c0,58.2,45,100.2,107.7,100.2c37.8,0,54-12,63.3-12c3.3,0,4.8,0.9,5.4,1.8h4.5l2.7-43.5
			L3505.3,3915.9"/>
		<path id="path250" class="st0" d="M3671.2,3846h-5.7c-2.4,21.3-8.1,23.7-20.4,23.7h-50.7v-63.9c0-13.8,5.1-16.5,16.2-16.5h46.2
			c21,0,27.3,8.1,34.8,33.9h5.4l-4.8-44.7h-159.3v5.7h8.4c24,0,28.2,6.6,28.2,24.6v126.6c0,16.8-3.9,24-24,24h-6.6v5.7h144l2.4-41.7
			h-5.4c-3.9,25.5-11.4,30.9-22.2,30.9h-63.3v-73.8h53.7c10.8,0,15.9,5.1,17.4,22.5h5.7L3671.2,3846"/>
		<path id="path252" class="st0" d="M3724.6,3824.1c6.3-26.7,27.3-42.3,50.7-42.3c20.1,0,41.4,11.7,41.4,35.4
			c0,43.2-96.3,56.4-96.3,108.9c0,24.9,22.8,43.5,53.4,43.5c25.2,0,30.3-7.5,40.8-7.5c2.4,0,3.6,0.6,5.4,3h4.8l5.1-38.1h-5.1
			c-8.4,21.6-27.6,35.4-48.3,35.4c-19.8,0-33.6-11.4-33.6-28.2c0-42.6,96.3-54,96.3-109.2c0-29.4-26.1-51.3-61.2-51.3
			c-16.5,0-37.5,8.1-41.7,8.1c-2.7,0-4.8-1.5-6-3.3h-5.1l-6.3,45.6L3724.6,3824.1"/>
		<path id="path254" class="st1" d="M468.4,4104.5c0-138.7,112.5-251.2,251.2-251.2c138.8,0,251.2,112.5,251.2,251.2
			c0,138.7-112.5,251.2-251.2,251.2C580.8,4355.7,468.4,4243.2,468.4,4104.5"/>
		<path id="path256" class="st2" d="M970.8,4110.1c0-1.1-4.5-4.9-9.2-7.8c-0.1-0.1-0.2-0.1-0.3-0.2c-6.5-3.5-15.7-6.8-27.1-9.8
			c-11.7-3.1-26.2-5.9-42.1-8.3c-16-2.4-33.7-4.3-52.8-5.9c0,0,0,0,0,0c-24.4-2.2-39.8-3.1-59.3-4.1c-20.7-0.9-42.2-1.3-64-1.3
			c0-2.8,0-5.6,0-8.3c0-19.6,0.1-38.4,0.2-56c0.5-96.4,0.6-96.4,3.5-155.1c138.8,0,251.2,112.5,251.2,251.2
			C970.8,4104.5,970.8,4108.1,970.8,4110.1"/>
		<path id="path258" class="st0" d="M813.1,3879.3L813.1,3879.3L813.1,3879.3"/>
		<path id="path260" class="st0" d="M715.9,4064.3c0-19.6,0.1-38.4,0.2-56c40.3-38.1,40.3-38.1,57-54.9c4.4,31.9,6.9,70,6.9,112.2
			c0,2.8,0,5.6-0.1,8.3c-25.4-1-42.2-1.3-64-1.3C715.9,4069.9,715.9,4067.1,715.9,4064.3"/>
		<path id="path262" class="st0" d="M808.1,3910.5c-8.8,14.3-16.8,23.6-35,42.8c-8.5-61.2-23.8-98.8-42.5-99.6
			c1.6,0.1,4,0.2,5.6,0.3c2,0.1,4.4,0.3,6.4,0.5C768.6,3856.7,791,3876.7,808.1,3910.5"/>
		<path id="path264" class="st0" d="M836.2,4013c0,0.4-14.5-75.4-28.2-102.5c7.9-15.2,8.2-21.2,5-31.2c24.4,18.5,44.5,46.4,58.4,81
			C862.6,3978.4,856.5,3988.1,836.2,4013"/>
		<path id="path266" class="st0" d="M764.3,3857.2c5.5,0.9,5.2,1.1,15.3,3.3l6,1.8c18.6,5.7,21.8,8.7,27.6,17.2
			c-16.6-12.5-34.3-20.1-54-23.2L764.3,3857.2"/>
		<path id="path268" class="st0" d="M876,3918.9c36.2,41,58.4,99,58.3,165.1c0,2.8,0,5.5-0.1,8.3c-11.7-3.1-26.2-5.9-42.1-8.3
			c0.2-2.8,0.3-5.6,0.3-8.4c0.1-43-7.2-82.1-20.5-115.1C879.3,3941.3,879.4,3933.3,876,3918.9"/>
		<path id="path270" class="st0" d="M839.2,4078c-24.4-2.2-39.8-3.1-59.3-4.1c34.4-35.8,41.8-44.2,56.3-60.9
			c2.1,17.8,3.1,36.6,3.1,56.4C839.3,4072.2,839.3,4075.2,839.2,4078"/>
		<path id="path272" class="st0" d="M664.5,4342.8c14,5.7,27.5,11.5,54.6,13.1l0,0C700.7,4354.2,681.6,4349,664.5,4342.8"/>
		<path id="path274" class="st3" d="M887.8,4084c-13.1,1.8-24,23.9-18.3,46.4c-18.4-12.7-39.1,13.4-36.1,37.6
			c1.6,12.8,10,24.2,24.6,18.9c-6,20.4-13.4,39.8-22.1,57.6c-13-1.6-27.2-3-42.3-4.1c13.4-20.3,0.3-39.2-18.5-36.2
			c-13.6,2.2-26.2,16.4-22.7,33.4c-11-7.6-33.6-4.6-35.7,19.4c-0.6-51.1-0.9-116.4-0.8-184.4c66.8-0.7,145,6.4,176.1,11.3
			c0,0,0-0.1,0,0C890.7,4083.9,889.1,4083.9,887.8,4084"/>
		<path id="path276" class="st3" d="M557.3,4033.6c18.7,7.2,42.2-25.1,33.9-46.6c-3.8-10-13.6-12.7-23.9-6.8
			c5.6-18.8,12.8-36.1,21.4-51.3c13.2-1.8,28-3.4,44.3-4.6c-13,16-2.6,29.2,14.8,28.3c14.9-0.8,34.7-13.2,30.5-30.1
			c13.4,6.1,36.2,1.1,38.9-16.4c-0.6,37.7-1.1,93-1.2,158.3c0,2.8,0,5.5,0,8.3c-21.2-0.1-42.7,0.7-64.1,1.6
			c-45.4,1.9-76.3,4.5-114.3,11c0-0.1,0,0.1,0,0C557,4078.6,562.3,4049.7,557.3,4033.6"/>
		<path id="path278" class="st3" d="M838.6,4265L838.6,4265c0.1,0,0.1,0,0.2,0h0c0,0,0.1,0,0.1,0c2.5,0.4,4.7,0.8,6.9,1.2
			c14.4,2.6,47,10.4,47,20c0,0,12.8-12.8,22.2-30.6c1.1-1.9,1.8-3.7,2.9-6.5c1.1-3.2,1.8-6.8,1.7-8.6c-0.4-5.4-3.9-5.5-7.5-3.9
			c-0.4,0.1-0.7,0.3-1.2,0.5c-12.9,5.8-17.1,17.7-19.6,22.5c-6.6-2.1-17.4-6.8-26.4-8.5c-1.1-0.2-3-0.7-4.1-0.9
			c10.7-17.5,20.8-38.4,28.1-58.7c12.7,13,32.5-11.1,33.4-34.4c0.6-13.7-5.6-25.9-18.1-21.5c10-18.5,6.8-45.7-12.2-51.7
			c-3.2,61-13.5,115.1-53.7,180.9h0l0,0"/>
		<path id="path280" class="st3" d="M838.4,4264.9L838.4,4264.9c-32,48.9-57.2,66.7-89.7,79.5c-6.5,2.5-28.4,11.1-29.6,11.4l0.1-0.2
			l0,0c5.7-8.4,17.2-13.3,19.7-14.1c-0.7-3.1-0.2-9.1,10.4-16.8c1.6-1.2,3.2-2.1,4.8-2.9c16.3-8.5,19.9-1.9,20.7,0.8
			c0.1,0.1,0.2,0.1,0.3,0.2c5-3.7,14.7-11.5,25.4-23.6c6.2-7.4,12-13.9,16.4-20.4c-10.1-1.3-23.5-2.5-36.7-3.4
			c-0.7,16-12.3,24-19.6,26.7c-15.9,5.9-21.1-12.8-14.2-26c-12.6,6.8-27.5,0.7-29.6-19.2C766.5,4257.4,800.6,4259.5,838.4,4264.9
			L838.4,4264.9L838.4,4264.9"/>
		<path id="path282" class="st3" d="M841.5,4310.5c-0.1,0.2-0.3,1.1-0.1,1.8c0.1,0.7,0.7,1.2,0.7,1.2s0.3,0.6,1.2,1.2
			c2.6,1.5,10.1,2.2,31.2-12.3c-43.6,34.3-90.5,48.3-130.3,52.3c-5.6,0.6-16,1.1-16,1.1c12.7-1.1,21.3-4.5,23.3-5.2
			c1.6-0.5,2.9-1.4,3.7-2.1c0.1,0,0.1,0,0.1,0c2.5-0.3,5.4-0.8,9-1.8c3.9-1.1,10.4-3.5,16.1-6.2c5.8-2.7,14.4-8.9,14.4-12.3
			c-1.3-0.8-1.7-1-5.6,0c14.9-10.6,36.2-30.5,48.8-45.2c8.7,1.6,21.5,3.5,27.5,5.5C865,4287.8,845.8,4302.3,841.5,4310.5"/>
		<path id="path284" class="st3" d="M586.1,3915c-21.6,3.9-33.9,7.1-42.2,11.4c-1.4,0.7-1.8,0.7-2.1,0.8
			c-0.2,0.1-12.3,12.4-22.9,26.2c-7.7,10-14.2,21.3-14.9,22.4c0.1-0.1,1.7,0,2.8-0.3c11.3-3.8,28.9-34.6,29.1-34.9
			c7-2.6,16.1-5,27-7.2c-10.3,15.5-19,33-25.6,52c-15.7-7.9-35.7,33.5-29.3,50.9c1.3,3.6,5.4,11,16.1,3c-8,18.4-5.8,46.1,13.5,46.1
			C537.9,4024.2,546.3,3971.5,586.1,3915"/>
		<path id="path286" class="st3" d="M716.8,3902.5c-2.2-8.7-14.4-17.1-31.7-10c8.1-10.7,1.1-19.9-13.1-17.3
			c-11,2-24.1,10.9-25.2,19.8c-13.7,1.1-26.1,2.4-37.2,3.9c10.6-12.2,22.3-22.3,35-29.7c1.5,0.6,3.9,0.5,11.4-2.2
			c9.6-3.4,18.8-7.9,28.4-11.3c0,0-2,0.3-2,0.3c-7.3,1.1-9.1,1.5-13.2,2.3c-18.5,3.6-50.7,14.2-83.1,56.6h0h0l0,0
			c39-6,77-8.6,131.1-9C717,3904.9,717,3903.5,716.8,3902.5"/>
		<path id="path288" class="st2" d="M719.1,4355.8c-134.7,0-248.1-110-250.7-246.5l0.1-0.2c0.1-0.4,1.4-2.9,6.6-6.2l0,0
			c5.3-3.3,13.1-6.9,23.4-9.5c12.8-3.3,26.2-6,38.7-8.1l0.2,0c38-6.5,68.9-9.1,114.3-11c21.4-0.9,42.9-1.7,64.1-1.6
			c0,12.8-0.1,85.8,0.5,156.2c0.1,9.1,0.2,18.6,0.3,28.1C717.2,4302.9,718.2,4349.7,719.1,4355.8L719.1,4355.8"/>
		<path id="path290" class="st0" d="M839.5,3883.6c-14.2-8-17-8.2-36.1-16c-5.3-2.2-10.3-3.5-15.8-5c33.9,9.1,80.2,47.1,88.4,56.3
			c-4.1-9.1-7.2-15.2-17.2-23.3C856,3893.4,844,3886.2,839.5,3883.6"/>
		<path id="path292" class="st0" d="M498.6,4093.4c-10.5,2.6-18.1,6.2-23.4,9.5c2.8,90.9,53.3,171.5,126.9,215.7
			c-17.4-15.4-25.1-24.6-33.9-45.5C526.8,4225.7,500.4,4161.9,498.6,4093.4"/>
		<path id="path294" class="st0" d="M602.2,4318.7c18.4,13.3,28.9,23,58.1,30c20.5,4.9,38.5,7.1,58.7,7.1l0,0
			C676.8,4354,636.9,4339.5,602.2,4318.7"/>
		<path id="path296" class="st0" d="M588.8,4078.3c-18.3,1.8-35.7,4.2-51.3,6.9c1,45.5,10.6,89.2,27,127.9
			c6.4-25.4,11.8-39.1,29.7-69.2C591.1,4122.7,589.2,4100.7,588.8,4078.3"/>
		<path id="path298" class="st0" d="M716.7,4257c-0.3-27.6-0.5-56.1-0.5-78.1c-0.1-21.7-0.2-37.5-0.2-40.5
			c-24.7,25.9-37.9,40.5-56,63.4c12.1,78.1,34.1,139.8,59.2,154l0,0C718.2,4348.4,717.2,4304,716.7,4257"/>
		<path id="path300" class="st0" d="M628.5,4260c-15.8-33.3-27.6-73.2-34.1-116c15.4-22.8,24.8-36.2,55.4-69.6
			c0.4,44.9,4,88.5,10.1,127.6C641.6,4227.1,635.7,4239,628.5,4260"/>
		<path id="path302" class="st0" d="M961.2,4102.1c0.1-2.8,0.1-5.5,0.1-8.3c0.1-88.8-43.2-162.7-111.1-203.6l-1.8-1.4
			c31.9,19.6,72.2,52.7,97.9,107.5c27.5,54,24.5,113.8,24.5,113.8C969.4,4107.7,965.4,4104.5,961.2,4102.1"/>
		<path id="path304" class="st4" d="M961.2,4102.1c0.1-2.8,0.1-5.5,0.1-8.3c0.1-88.8-43.2-162.7-111.1-203.6l-1.8-1.4
			c31.9,19.6,72.2,52.7,97.9,107.5c27.5,54,24.5,113.8,24.5,113.8C969.4,4107.7,965.4,4104.5,961.2,4102.1L961.2,4102.1z"/>
		<path id="path306" class="st0" d="M664.5,4342.8c-36.6-14.4-69.6-39-96.4-69.6c-7.3-22.8-7.3-35.6-3.6-60
			c16.3,38.1,39.1,71.1,66,95.8C638.8,4323.2,644,4331.8,664.5,4342.8"/>
		<path id="path308" class="st0" d="M628.4,4259.9c-4.5,20.5-4.9,30.9,2,48.8c26.2,24.1,56.5,42.1,88.7,47.1
			C683.8,4346.4,651.9,4309.4,628.4,4259.9"/>
		<path id="path310" class="st0" d="M416.7,4290.8l1.4-0.7c-2.5-5.1-1.3-7.9,3.6-10.4l20.5-10.2c9.4-4.7,16.5-15.6,8.3-32.1
			c-7.2-14.5-19.1-17.8-30-12.4l-22.1,11c-4.8,2.4-6.3,1.4-8.9-3.7l-1.4,0.7l9.7,19.5l1.4-0.7l-0.3-0.7c-2.1-4.2-1.9-6.6,2.6-8.7
			l21.1-10.4c10.2-5.1,19.4-2.1,25,9.2c4.2,8.6,5,19-7.9,25.4l-17.7,8.8c-7.3,3.6-9.1,3.1-12.6-3l-1.4,0.7L416.7,4290.8"/>
		<path id="path312" class="st0" d="M504.3,4315.9l-63.3-4l27.8-23.4c4.7-3.9,6.5-3.7,11.1,1.8l1.2-1l-12.7-15l-1.2,1l0.2,0.3
			c3.4,4,3.1,6.4,0.1,8.9l-31.8,26.8c-2.3-0.6-4.2-1.9-6.2-4l-1.2,1l8.6,10.1l57.5,3.7l-25.8,21.7c-3.9,3.3-5.6,2.8-10.1-2.3
			l-1.2,1.1l12.8,15.1l1.2-1c-4.1-4.9-4.1-6.6-1.6-8.7l36.1-30.4L504.3,4315.9"/>
		<path id="path314" class="st0" d="M535.1,4343.2l-15.8-13.1l-1,1.2c3.9,3.5,3.9,5.3,0.2,9.6l-23,27.7c-2.9,3.5-5,3.5-8.8,0.6
			l-1,1.2l15.8,13.1l1-1.2c-4.1-3.4-4.8-5.5-1.1-9.9l22.9-27.6c3.2-3.8,5.3-4.3,9.8-0.5L535.1,4343.2"/>
		<path id="path316" class="st0" d="M566.3,4362.5l-39,30.2c-4.5,3.5-6,4.1-10.5,1.5l-0.8,1.4l20.1,11.8l0.8-1.4
			c-6.6-4.1-7.3-6.6-4-9.1l32.3-25l-6.1,36.9c-0.4,2.5-0.8,4.3-1.4,5.2c-1.3,2.2-3.6,2-8.6-0.9l-0.8,1.4l16.9,9.9l0.8-1.4
			c-3.8-2.2-4.8-5.1-3.8-10.7l7.8-47.8L566.3,4362.5"/>
		<path id="path318" class="st0" d="M628.5,4412.2l-1.5-0.5c-2.6,5.4-4.4,5.6-7.6,4.4l-13.5-4.7l5.9-17c1.3-3.7,2.9-3.9,5.8-2.9
			l12.3,4.2c5.6,1.9,6.5,4.7,6.2,12.2l1.4,0.5l2.8-12.4l-42.5-14.6l-0.5,1.5l2.2,0.8c6.4,2.2,6.9,4.3,5.3,9.1l-11.7,33.8
			c-1.5,4.5-3.2,6-8.6,4.2l-1.8-0.6l-0.5,1.5l38.4,13.2l4.5-10.9l-1.5-0.5c-3.4,6.4-5.9,7.2-8.8,6.2L598,4434l6.8-19.7l14.3,4.9
			c2.9,1,3.8,2.8,2.6,7.6l1.5,0.5L628.5,4412.2"/>
		<path id="path320" class="st0" d="M664,4423.9c1.4,0.1,2.5,0.1,4.3,0.4c2.3,0.3,3.6,0.5,5.7,0.9c2.2-1.1,5.4-3.2,9.5-6.5l6.2-4.9
			c8.4-6.6,12.5-9.3,27.1-6.9l-0.2,1.5c-6.5-0.4-12,2.1-17.6,6.5l-7.4,5.9c-4.4,3.5-7.2,5.5-10.6,7.6c6.7,2.8,10.3,8.6,9.6,14.9
			c-1,8.6-8.8,14.1-24.3,12.3c-5.5-0.6-7.1-0.9-10.6-1.5c-3.4-0.6-8.5-1.5-10.5-1.7l0.2-1.6l1.9,0.2c4.9,0.6,6.5-0.8,7.1-6l4.2-35.4
			c0.7-5.6-0.9-7.2-5.9-7.8l-1.4-0.2l0.2-1.6l23.8,2.8l-0.2,1.6l-1.9-0.2c-4.7-0.6-6.9,0.5-7.5,5.5L664,4423.9z M660.6,4453.1
			c1.5,0.3,2.6,0.5,4.2,0.7c12.9,1.5,17.2-4.1,18.1-11.9c1.2-10.1-4.5-14.8-13.8-15.8c-1.9-0.2-3.2-0.5-5.2-0.5L660.6,4453.1"/>
		<path id="path322" class="st0" d="M729.1,4419.1c1.2-7.6,6.8-12.5,13.3-13c5.7-0.4,11.9,2.4,12.4,9c0.9,12.1-25.8,18-24.7,32.8
			c0.6,7,7.4,11.7,16,11.1c7.1-0.6,8.4-2.8,11.3-3c0.7-0.1,1,0.1,1.6,0.7l1.3-0.1l0.6-10.8l-1.4,0.1c-1.9,6.2-7,10.5-12.8,11
			c-5.6,0.4-9.7-2.5-10.1-7.2c-0.9-12,25.9-17.3,24.7-32.8c-0.6-8.2-8.5-13.9-18.3-13.1c-4.6,0.4-10.4,3.1-11.5,3.2
			c-0.8,0-1.4-0.3-1.8-0.8l-1.4,0.1l-0.8,13L729.1,4419.1"/>
		<path id="path324" class="st0" d="M794.1,4396.9l-20.1,4.4l0.3,1.6c5.2-0.9,6.6,0.2,7.7,5.8l7.7,35.2c1,4.5-0.3,6-4.9,7.3l0.3,1.6
			l20.1-4.4l-0.3-1.6c-5.2,1.1-7.3,0.4-8.5-5.2l-7.6-35c-1.1-4.9-0.1-6.8,5.6-8.1L794.1,4396.9"/>
		<path id="path326" class="st0" d="M836.8,4390.8c-1.7-4.2-0.9-6.3,4-8.2l2.9-1.2l-0.6-1.5l-24.8,9.8l0.6,1.5l2.9-1.1
			c4.8-1.9,6.8-1,8.5,3.2l15.4,38.9l-13.7,5.4c-3.2,1.2-5.3,0-9.2-6.5l-1.4,0.6l6.3,12.2l1.5-0.6c-0.1-0.5,0.1-1,0.5-1.3
			c0.4-0.3,0.9-0.6,1.5-0.9l37.8-15c1.1-0.4,2.4-0.7,2.9,0.2l1.5-0.6l-3.8-13.2l-1.4,0.5c1.6,7.4,0.9,9.8-2.3,11l-13.7,5.4
			L836.8,4390.8"/>
		<path id="path328" class="st0" d="M923,4385.3c4.8,2.4,4.3,4.4-0.2,7.4l0.9,1.4l15.9-10.6l-0.9-1.3c-5,2.9-8.3,2.3-12.5,0.3
			l-24.9-12l-7-10.5c-2.5-3.7-2.2-6.1,2.1-9l0.9-0.6l-0.9-1.3l-19.3,12.9l0.9,1.3l1.4-0.9c4.4-2.9,6.7-2.1,9,1.3l6.6,9.9l0.5,27.9
			c0.2,7.7-0.8,9.8-5.2,13l0.9,1.3l18.7-12.5l-0.9-1.3c-5.5,3.7-6.7,2.6-6.8-2.1l-0.4-24.9L923,4385.3"/>
		<path id="path330" class="st0" d="M1000,4279.9c12.1,9.2,12.5,26.7,2.8,39.5c-10.9,14.3-28.3,17.4-41.7,7.2
			c-12.6-9.6-12.6-27.2-2.5-40.4C968.5,4273.1,986.3,4269.5,1000,4279.9L1000,4279.9z M992.9,4284.5c-9.5-7.3-23.2-9.4-31.6,1.5
			c-8.2,10.8-5.9,26.1,6.7,35.7c8.1,6.1,22.7,9.9,31.7-2C1008.2,4308.7,1005.4,4294,992.9,4284.5"/>
		<path id="path332" class="st0" d="M1017.7,4227l-0.6,1.3c4.4,2.3,5,4.5,3.2,8.2l-6.8,14.1l-16.7-8c-4.3-2-5.5-3.8-2.7-9.5
			l-1.5-0.7l-8.9,18.6l1.5,0.7c2.6-4.6,4-4.9,10.1-2l29.9,14.3c4.9,2.3,6.9,3.8,4.4,9.1l1.5,0.7l16.3-34.2l-9-4.3l-0.6,1.3
			c4.4,2.2,5.5,4.6,3.2,9.3l-6.9,14.5l-18-8.5l7.2-15.1c1.4-2.8,3.6-3.5,7-2.1l0.6-1.3L1017.7,4227"/>
		<path id="path334" class="st0" d="M425.3,3895.8l30.5,56.2l-0.1,0.2l-41.1-26.2c-4.7-3-3.2-7-0.5-11.1l-1.7-1.2l-13.2,18.2
			l1.7,1.2c4.6-6.4,6.6-6.1,14.9-0.8l35.6,22.6c6,3.8,7.5,5.1,3.9,10.8l1.5,1.1l9.6-13.2l-28.8-53.1l59.3,11l9.3-12.9l-1.6-1.2
			c-3.5,4.1-4.8,5.7-7.6,3.3l-37.6-31.5c-7.6-6.4-7.1-7.1-2.5-13.5l-1.7-1.2l-16.3,22.5l1.7,1.2c3-4.1,7-7.3,11.4-3.6l37.4,31
			l-0.1,0.2l-62.5-12.1L425.3,3895.8"/>
		<path id="path336" class="st0" d="M531.1,3832.4l-5.8-20.2c-0.3-1.1-0.6-2.9-1.6-4.3c-1.8-2.4-4-1.6-9,2l-2.3,1.7l-1.2-1.6
			l23.9-17.6l1.2,1.7c-4.3,3.2-5.5,5.4-3.9,11.3l17.3,61.7l-7.6,5.6l-0.6-2.5l-47.7-31.6c-8.3-5.5-10-5.8-15.7-1.7l-1.2-1.7
			l20.1-14.8l1.2,1.6l-1.4,1c-4.8,3.5-6.4,6-4.7,8.4c0.9,1.2,4,3,5.8,4.2l15.1,9.9L531.1,3832.4z M532.4,3837.3l-15.1,11.1
			l22.3,14.9L532.4,3837.3"/>
		<path id="path338" class="st0" d="M587.9,3798.5c1.6-0.7,2.9-1.2,5.1-2c2.7-1,4.4-1.5,7-2.3c1.9-2.5,4.4-6.7,7.3-12.8l4.3-9.1
			c5.9-12.3,9.1-17.8,27.2-23.3l0.7,1.8c-7.7,3.3-12.6,9.3-16.4,17.4l-5.2,10.9c-3.1,6.5-5.1,10.4-7.8,14.7
			c9.2-0.5,16.7,4.1,19.4,11.7c3.7,10.4-2,21.1-20.9,27.8c-6.6,2.4-8.7,3-12.9,4.2c-4.3,1.3-10.6,3.1-13.1,3.9l-0.7-1.9l2.2-0.8
			c5.9-2.1,7-4.5,4.8-10.9l-15.2-42.9c-2.4-6.8-5.1-7.7-11.2-5.6l-1.7,0.6l-0.7-1.9l28.8-10.2l0.7,1.9l-2.3,0.8
			c-5.7,2-7.6,4.4-5.4,10.5L587.9,3798.5z M600.4,3833.9c1.9-0.5,3.2-0.9,5.2-1.6c15.7-5.6,17.4-14.4,14-23.9
			c-4.3-12.2-13.5-14.4-24.8-10.4c-2.4,0.8-3.9,1.3-6.3,2.4L600.4,3833.9"/>
		<path id="path340" class="st0" d="M710.5,3800.8c4,5.6,2.1,7.6-4.8,8.2l0.2,2.1l24.4-2.1l-0.2-2c-7.4,0.1-10.8-2.6-14.2-7.4
			l-20.5-28.8l-1.4-16.1c-0.5-5.7,1.4-8.1,8-8.7l1.4-0.1l-0.2-2l-29.6,2.5l0.2,2.1l2-0.2c6.7-0.5,8.9,1.7,9.3,7l1.3,15.2l-16.6,31.6
			c-4.6,8.7-6.9,10.4-13.9,11.3l0.2,2.1l28.7-2.5l-0.2-2c-8.4,0.8-9.1-1.3-6.3-6.5l15-28.1L710.5,3800.8"/>
		<path id="path342" class="st0" d="M800.4,3752.2l-47.7-8.1l-0.3,2l3.5,0.6c4.9,0.9,6.5,2.8,5.5,8.2l-8,47.3
			c-1,5.6-3.1,7.7-9.8,6.6l-1.5-0.2l-0.3,2l31.5,5.3l0.3-2l-3.9-0.7c-7-1.2-8.6-2.2-7.5-8.8l8.3-49.2c0.5-2.8,1.8-3.8,4.9-3.2
			l15.7,2.6c6.3,1.1,7.8,3.9,12.9,14.3l1.9,0.3L800.4,3752.2"/>
		<path id="path344" class="st0" d="M855.6,3802.5l14.3-15.4c0.8-0.9,2.1-2.1,2.8-3.6c1.2-2.8-0.7-4.3-6.4-6.6l-2.6-1.1l0.8-1.9
			l27.4,11.4l-0.8,1.9c-5-2.1-7.5-2-11.7,2.5l-44,46.7l-8.7-3.6l1.8-1.8l2.6-57.2c0.4-10-0.2-11.6-6.7-14.4l0.8-1.9l23.1,9.6
			l-0.8,1.9l-1.6-0.7c-5.5-2.3-8.5-2.4-9.6,0.3c-0.6,1.4-0.5,5-0.6,7.1l-0.8,18.1L855.6,3802.5z M852,3806.2l-17.3-7.2l-1.2,26.8
			L852,3806.2"/>
		<path id="path346" class="st0" d="M972.5,3844.4L892,3854l29.6-35.8c4.9-6,7.3-6.1,14.4-0.3l1.3-1.6l-19.3-16l-1.3,1.6l0.3,0.3
			c5.2,4.3,5.4,7.4,2.2,11.2l-33.9,41c-3-0.2-5.8-1.4-8.7-3.7l-1.3,1.6l13.1,10.8l73.1-8.5l-27.4,33.2c-4.2,5.1-6.5,4.7-13.3-0.6
			l-1.3,1.6l19.5,16.1l1.3-1.6c-6.3-5.2-6.7-7.4-4-10.6l38.4-46.5L972.5,3844.4"/>
		<path id="path348" class="st0" d="M998.8,3889.9c5.3-3.4,5.2-6.6,2-11.4l-1-1.6l1.7-1.1l18.8,29.1c14.8,23,5.3,44.2-8.4,53.1
			c-15,9.6-34.1,6.9-49.6-17c-3.1-4.7-6.5-10.4-9.6-15.5c-3-5.1-5.7-9.7-7.7-13.1l1.7-1.1l1.1,1.8c3.5,5.4,5.9,6,11.8,2.1
			L998.8,3889.9z M956.7,3927.7c0.6,1.2,1.9,3.8,4.4,7.5c8.2,12.7,15.6,17.1,22.4,18.6c8.8,1.9,17.5-1,24.2-5.4
			c9.4-6,13.6-14.8,14.7-20.2c2-9.3,0.4-15.5-7.4-27.6c-4.6-7.2-6.1-6.6-9.8-4.2L956.7,3927.7"/>
		<path id="path350" class="st0" d="M372.8,4125.6v-46.3c0-2.4,0.5-3.1,3-3.1h4.5v-1.5h-20.1v1.5h4.3c2.6,0,3,0.7,3,3.1v39.9
			c-2.6-2.3-7-5.2-10-6.6l-0.6,1.1c4.6,3.1,11.3,9.1,13.2,11.8L372.8,4125.6"/>
		<path id="path352" class="st0" d="M417.8,4114.2c0-4.5-2.2-8.2-6.7-11c-10.3,4.4-12.7,7.6-12.7,12c0,5,4.3,9,9.8,9
			C413.7,4124.1,417.8,4119.9,417.8,4114.2z M422.6,4114.1c0,6.4-6.4,11.5-14.4,11.5c-7.9,0-14.5-5.9-14.5-13
			c0-5.4,3.4-9.5,10.9-12.8c-7.8-3.1-11.6-7.5-11.6-13.1c0-7.3,6.8-13.1,15.5-13.1c8.9,0,15.8,6.4,15.8,14.7c0,6.1-3.6,10.4-12,14.1
			C419.2,4105.3,422.6,4109,422.6,4114.1L422.6,4114.1z M419.1,4086.1c0-6.2-4.6-11-10.6-11c-6.1,0-10.6,5-10.6,11.8
			c0,5.2,2.7,9.2,8.2,12.1C415.4,4094.8,419.1,4091.4,419.1,4086.1"/>
		<path id="path354" class="st0" d="M1016.2,4119.9h18.9c1.4,0,1.9,0.3,2.3,1h1.5l-0.9-6.2h-20.2l-0.6-14.3c2.5,1.4,5.3,2,8.6,2
			c8.9,0,16.4-7.5,16.4-16.4c0-9.7-8-17-18.7-17c-6.4,0-11.6,2.2-11.6,5c0,1.4,1.2,2.5,2.6,2.5c4.3,0,5.8-5.6,10.8-5.6
			c5.9,0,11,6.2,11,13.4c0,7.4-5.1,12.9-11.9,12.9c-2.9,0-6-1.2-8.4-3.2l-0.8,0.6L1016.2,4119.9"/>
		<path id="path356" class="st0" d="M1077.5,4120.9c-16.7-4.7-26.8-16.4-26.8-31.2c0-12.3,6.9-20.8,16.7-20.8
			c8.5,0,15.6,7.3,15.6,16.1c0,8.2-6.3,14.7-14.2,14.7c-3.9,0-7-1.3-11.3-4.6c1.7,11.7,8.4,19.5,20.8,24.6L1077.5,4120.9z
			 M1077,4084.3c0-9.1-3.8-14.1-9.4-14.1c-5.1,0-10.9,4.4-10.9,17.9c0,2.7,0.2,3.8,0.4,5c4.9,3.9,8.5,4.8,10.6,4.8
			C1073,4097.9,1077,4092.9,1077,4084.3"/>
	</g>
</g>
</svg>
