<?xml version="1.0" encoding="utf-8"?>
<!-- Generator: Adobe Illustrator 19.2.1, SVG Export Plug-In . SVG Version: 6.00 Build 0)  -->
<svg version="1.1" id="Layer_1" xmlns="http://www.w3.org/2000/svg" xmlns:xlink="http://www.w3.org/1999/xlink" x="0px" y="0px"
	 viewBox="0 0 217 48" style="enable-background:new 0 0 217 48;" xml:space="preserve">
<style type="text/css">
	.st0{fill:#E03A3E;}
</style>
<g>
	<g>
		<g>
			<path class="st0" d="M11.8,10.7c0,1.3-0.2,2.4-0.5,3.4c-0.4,0.9-0.8,1.7-1.5,2.3c-0.6,0.6-1.4,1-2.2,1.3C6.8,17.9,5.9,18,4.9,18
				H1.4V3.5h3.8c1,0,1.8,0.1,2.6,0.4s1.5,0.7,2.1,1.3s1,1.3,1.4,2.2C11.6,8.3,11.8,9.4,11.8,10.7z M10.2,10.7c0-1.9-0.4-3.3-1.3-4.3
				C8,5.5,6.7,5,5.1,5H3v11.6h2.1c0.8,0,1.5-0.1,2.1-0.3c0.6-0.2,1.2-0.6,1.6-1c0.4-0.5,0.8-1.1,1-1.8
				C10.1,12.6,10.2,11.8,10.2,10.7z"/>
		</g>
		<g>
			<path class="st0" d="M15.1,18V3.5h1.6V18H15.1z"/>
		</g>
		<g>
			<path class="st0" d="M29.6,18l-6.4-9.9C23.1,8,23.1,7.8,23,7.6c-0.1-0.2-0.2-0.3-0.3-0.5c-0.1-0.2-0.2-0.3-0.3-0.5
				c-0.1-0.2-0.2-0.3-0.2-0.4v1V18h-1.6V3.5h1.6l6.3,10.1c0.1,0.1,0.2,0.3,0.3,0.4c0.1,0.2,0.2,0.3,0.3,0.5c0.1,0.2,0.2,0.3,0.3,0.5
				c0.1,0.2,0.2,0.3,0.2,0.4v-1V3.5h1.6V18H29.6z"/>
		</g>
		<g>
			<path class="st0" d="M45.1,14.9c-0.3,0.8-0.6,1.4-1.1,1.9c-0.5,0.5-1.1,0.9-1.7,1.1c-0.7,0.2-1.4,0.4-2.1,0.4
				c-0.9,0-1.7-0.2-2.4-0.6c-0.7-0.4-1.3-0.9-1.9-1.6c-0.5-0.7-0.9-1.5-1.2-2.4c-0.3-0.9-0.4-1.9-0.4-3c0-1.1,0.1-2.1,0.4-3
				s0.7-1.7,1.2-2.4c0.5-0.7,1.1-1.2,1.9-1.6c0.7-0.4,1.5-0.6,2.4-0.6c2,0,3.5,0.8,4.6,2.3l-1.3,1c-0.5-0.6-1-1.1-1.5-1.4
				c-0.5-0.3-1.1-0.4-1.9-0.4c-0.6,0-1.2,0.1-1.7,0.4c-0.5,0.3-1,0.7-1.3,1.2s-0.7,1.2-0.9,1.9C36,9,35.9,9.9,35.9,10.7
				s0.1,1.7,0.3,2.4s0.5,1.4,0.9,1.9c0.4,0.5,0.8,0.9,1.4,1.2c0.5,0.3,1.1,0.4,1.7,0.4c1.2,0,2.1-0.4,2.8-1.1c0.6-0.7,1-1.8,1-3.2
				v-0.1h-2.6v-1.5h4.2v1.4C45.5,13.2,45.4,14.1,45.1,14.9z"/>
		</g>
		<g>
			<path class="st0" d="M59.5,18V8.2V6.6c0,0.1-0.1,0.3-0.2,0.5c-0.1,0.2-0.1,0.4-0.2,0.6C59.1,8,59,8.2,58.9,8.4
				c-0.1,0.2-0.2,0.4-0.2,0.6l-3.9,9.3L51,9c-0.1-0.2-0.2-0.4-0.2-0.6c-0.1-0.2-0.2-0.4-0.2-0.7c-0.1-0.2-0.1-0.4-0.2-0.6
				c-0.1-0.2-0.1-0.4-0.2-0.5v1.6V18h-1.6V3.5h1.8l3.4,8.7c0.1,0.2,0.2,0.5,0.3,0.7c0.1,0.3,0.2,0.5,0.3,0.8
				c0.1,0.3,0.2,0.5,0.3,0.7c0.1,0.2,0.1,0.4,0.2,0.6c0-0.2,0.1-0.3,0.2-0.6c0.1-0.2,0.2-0.5,0.3-0.7c0.1-0.3,0.2-0.5,0.3-0.8
				s0.2-0.5,0.3-0.7l3.5-8.7h1.8V18H59.5z"/>
		</g>
		<g>
			<path class="st0" d="M74.2,18L73,14.3h-6L65.7,18h-1.7l5-14.5h1.8l5,14.5H74.2z M70.9,8.1c-0.1-0.2-0.2-0.5-0.3-0.8
				c-0.1-0.3-0.2-0.5-0.3-0.8c-0.1-0.3-0.2-0.5-0.2-0.7C70.1,5.6,70,5.4,70,5.2c0,0.2-0.1,0.3-0.2,0.6c-0.1,0.2-0.1,0.5-0.2,0.7
				c-0.1,0.3-0.2,0.5-0.3,0.8c-0.1,0.3-0.2,0.5-0.3,0.8l-1.6,4.7h5L70.9,8.1z"/>
		</g>
		<g>
			<path class="st0" d="M87.9,18l-6.4-9.9c-0.1-0.1-0.2-0.3-0.3-0.4S81.1,7.3,81,7.1c-0.1-0.2-0.2-0.3-0.3-0.5
				c-0.1-0.2-0.2-0.3-0.2-0.4v1V18h-1.6V3.5h1.6l6.3,10.1c0.1,0.1,0.2,0.3,0.3,0.4c0.1,0.2,0.2,0.3,0.3,0.5c0.1,0.2,0.2,0.3,0.3,0.5
				c0.1,0.2,0.2,0.3,0.2,0.4v-1V3.5h1.6V18H87.9z"/>
		</g>
		<g>
			<path class="st0" d="M106.6,17.6c-0.8,0.4-1.7,0.7-2.8,0.7c-0.9,0-1.7-0.2-2.4-0.6s-1.3-0.9-1.9-1.6c-0.5-0.7-0.9-1.5-1.2-2.4
				c-0.3-0.9-0.4-1.9-0.4-3c0-1.1,0.1-2.1,0.4-3s0.7-1.7,1.2-2.4c0.5-0.7,1.1-1.2,1.9-1.6c0.7-0.4,1.5-0.6,2.4-0.6
				c2,0,3.5,0.8,4.6,2.3l-1.3,1c-0.5-0.6-1-1.1-1.5-1.4c-0.5-0.3-1.1-0.4-1.9-0.4c-0.6,0-1.2,0.1-1.7,0.4c-0.5,0.3-1,0.7-1.3,1.2
				c-0.4,0.5-0.7,1.2-0.9,1.9c-0.2,0.7-0.3,1.5-0.3,2.4s0.1,1.7,0.3,2.4c0.2,0.7,0.5,1.4,0.9,1.9c0.4,0.5,0.8,0.9,1.4,1.2
				c0.5,0.3,1.1,0.4,1.7,0.4c0.8,0,1.5-0.2,2-0.5c0.6-0.3,1.1-0.8,1.6-1.4l1.1,1C108,16.6,107.4,17.1,106.6,17.6z"/>
		</g>
		<g>
			<path class="st0" d="M111.6,18V3.5h8.8V5h-7.2v4.6h4.1V11h-4.1v5.5h7.5V18H111.6z"/>
		</g>
		<g>
			<path class="st0" d="M132.7,18l-6.4-9.9c-0.1-0.1-0.2-0.3-0.3-0.4s-0.2-0.3-0.3-0.5c-0.1-0.2-0.2-0.3-0.3-0.5
				c-0.1-0.2-0.2-0.3-0.2-0.4v1V18h-1.6V3.5h1.6l6.3,10.1c0.1,0.1,0.2,0.3,0.3,0.4c0.1,0.2,0.2,0.3,0.3,0.5c0.1,0.2,0.2,0.3,0.3,0.5
				c0.1,0.2,0.2,0.3,0.2,0.4v-1V3.5h1.6V18H132.7z"/>
		</g>
		<g>
			<path class="st0" d="M143,5v13h-1.6V5h-4.3V3.5h10.2V5H143z"/>
		</g>
		<g>
			<path class="st0" d="M150.2,18V3.5h8.8V5h-7.2v4.6h4.1V11h-4.1v5.5h7.5V18H150.2z"/>
		</g>
		<g>
			<path class="st0" d="M172.6,7.6c0,1.1-0.3,2-0.9,2.7c-0.6,0.7-1.5,1.1-2.5,1.4l3.2,6.3h-1.9l-3.1-6.2H164V18h-1.6V3.5h5.7
				c0.6,0,1.2,0.1,1.8,0.2c0.6,0.2,1,0.4,1.4,0.8c0.4,0.3,0.7,0.8,1,1.3C172.5,6.3,172.6,6.9,172.6,7.6z M171,7.7
				c0-0.9-0.3-1.6-0.8-2C169.7,5.2,169,5,168,5H164v5.4h3.9c1.1,0,1.9-0.2,2.4-0.7C170.7,9.2,171,8.6,171,7.7z"/>
		</g>
		<g>
			<path class="st0" d="M182.8,5v4.8h4v1.5h-4V18h-1.6V3.5h8.5V5H182.8z"/>
		</g>
		<g>
			<path class="st0" d="M203.4,10.7c0,1.1-0.1,2.1-0.4,3c-0.3,0.9-0.7,1.7-1.2,2.4s-1.2,1.2-1.9,1.6c-0.7,0.4-1.6,0.6-2.5,0.6
				c-0.9,0-1.7-0.2-2.5-0.5c-0.7-0.4-1.4-0.9-1.9-1.5c-0.5-0.7-0.9-1.5-1.2-2.4c-0.3-0.9-0.4-1.9-0.4-3c0-1.1,0.1-2.1,0.4-3
				c0.3-0.9,0.7-1.7,1.2-2.4c0.5-0.7,1.2-1.2,1.9-1.6c0.7-0.4,1.6-0.6,2.5-0.6c0.9,0,1.7,0.2,2.5,0.5c0.7,0.4,1.4,0.9,1.9,1.5
				c0.5,0.7,0.9,1.5,1.2,2.4S203.4,9.6,203.4,10.7z M201.8,10.8c0-0.9-0.1-1.7-0.3-2.5s-0.5-1.4-0.9-1.9c-0.4-0.5-0.9-0.9-1.4-1.2
				c-0.5-0.3-1.1-0.4-1.8-0.4c-0.6,0-1.2,0.1-1.7,0.4c-0.5,0.3-1,0.7-1.4,1.2c-0.4,0.5-0.7,1.1-0.9,1.9c-0.2,0.7-0.3,1.6-0.3,2.5
				s0.1,1.7,0.3,2.5c0.2,0.7,0.5,1.4,0.9,1.9c0.4,0.5,0.9,0.9,1.4,1.2c0.5,0.3,1.1,0.4,1.8,0.4c0.6,0,1.2-0.1,1.7-0.4s1-0.7,1.4-1.2
				c0.4-0.5,0.7-1.1,0.9-1.9C201.7,12.5,201.8,11.7,201.8,10.8z"/>
		</g>
		<g>
			<path class="st0" d="M216.9,7.6c0,1.1-0.3,2-0.9,2.7c-0.6,0.7-1.5,1.1-2.5,1.4l3.2,6.3h-1.9l-3.1-6.2h-3.4V18h-1.6V3.5h5.7
				c0.6,0,1.2,0.1,1.8,0.2c0.6,0.2,1,0.4,1.4,0.8c0.4,0.3,0.7,0.8,1,1.3C216.7,6.3,216.9,6.9,216.9,7.6z M215.2,7.7
				c0-0.9-0.3-1.6-0.8-2C214,5.2,213.2,5,212.3,5h-4.1v5.4h3.9c1.1,0,1.9-0.2,2.4-0.7S215.2,8.6,215.2,7.7z"/>
		</g>
	</g>
	<g>
		<g>
			<path class="st0" d="M9.9,42.9V28.4h8.8v1.5h-7.1v4.6h4.1v1.5h-4.1v5.5H19v1.5H9.9z"/>
		</g>
		<g>
			<path class="st0" d="M31,42.9L24.7,33c-0.1-0.1-0.2-0.3-0.3-0.4c-0.1-0.2-0.2-0.3-0.3-0.5c-0.1-0.2-0.2-0.3-0.3-0.5
				s-0.2-0.3-0.2-0.4v1v10.8h-1.6V28.4h1.6l6.3,10.1c0.1,0.1,0.2,0.3,0.3,0.4c0.1,0.2,0.2,0.3,0.3,0.5c0.1,0.2,0.2,0.3,0.3,0.5
				c0.1,0.2,0.2,0.3,0.2,0.4v-1V28.4h1.6v14.5H31z"/>
		</g>
		<g>
			<path class="st0" d="M41.3,29.8v13h-1.6v-13h-4.3v-1.5h10.2v1.5H41.3z"/>
		</g>
		<g>
			<path class="st0" d="M58.8,32.5c0,1.1-0.3,2-0.9,2.7c-0.6,0.7-1.5,1.1-2.5,1.4l3.2,6.3h-1.9l-3.1-6.2h-3.4v6.2h-1.6V28.4h5.7
				c0.6,0,1.2,0.1,1.8,0.2c0.6,0.2,1,0.4,1.4,0.8c0.4,0.3,0.7,0.8,1,1.3C58.7,31.2,58.8,31.8,58.8,32.5z M57.2,32.5
				c0-0.9-0.3-1.6-0.8-2c-0.5-0.4-1.2-0.7-2.2-0.7h-4.1v5.4H54c1.1,0,1.9-0.2,2.4-0.7C56.9,34.1,57.2,33.4,57.2,32.5z"/>
		</g>
		<g>
			<path class="st0" d="M62,42.9V28.4h8.8v1.5h-7.2v4.6h4.1v1.5h-4.1v5.5h7.5v1.5H62z"/>
		</g>
		<g>
			<path class="st0" d="M84.2,32.7c0,0.7-0.1,1.4-0.4,1.9c-0.2,0.6-0.6,1-1,1.4c-0.4,0.4-0.9,0.7-1.6,0.9c-0.6,0.2-1.3,0.3-2,0.3
				h-3.5v5.7h-1.6V28.4h5.4c0.7,0,1.3,0.1,1.8,0.3c0.6,0.2,1,0.4,1.5,0.8c0.4,0.4,0.7,0.8,1,1.4C84.1,31.3,84.2,32,84.2,32.7z
				 M82.6,32.8c0-0.9-0.3-1.7-0.8-2.2c-0.5-0.5-1.3-0.8-2.3-0.8h-3.8v5.9h3.5C81.5,35.7,82.6,34.7,82.6,32.8z"/>
		</g>
		<g>
			<path class="st0" d="M97.2,32.5c0,1.1-0.3,2-0.9,2.7c-0.6,0.7-1.5,1.1-2.5,1.4l3.2,6.3h-1.9L92,36.7h-3.4v6.2H87V28.4h5.7
				c0.6,0,1.2,0.1,1.8,0.2c0.6,0.2,1,0.4,1.4,0.8c0.4,0.3,0.7,0.8,1,1.3C97.1,31.2,97.2,31.8,97.2,32.5z M95.6,32.5
				c0-0.9-0.3-1.6-0.8-2c-0.5-0.4-1.2-0.7-2.2-0.7h-4.1v5.4h3.9c1.1,0,1.9-0.2,2.4-0.7C95.4,34.1,95.6,33.4,95.6,32.5z"/>
		</g>
		<g>
			<path class="st0" d="M100.4,42.9V28.4h8.8v1.5h-7.2v4.6h4.1v1.5h-4.1v5.5h7.5v1.5H100.4z"/>
		</g>
		<g>
			<path class="st0" d="M121.6,42.9l-6.4-9.9c-0.1-0.1-0.2-0.3-0.3-0.4s-0.2-0.3-0.3-0.5c-0.1-0.2-0.2-0.3-0.3-0.5
				c-0.1-0.2-0.2-0.3-0.2-0.4v1v10.8h-1.6V28.4h1.6l6.3,10.1c0.1,0.1,0.2,0.3,0.3,0.4c0.1,0.2,0.2,0.3,0.3,0.5
				c0.1,0.2,0.2,0.3,0.3,0.5c0.1,0.2,0.2,0.3,0.2,0.4v-1V28.4h1.6v14.5H121.6z"/>
		</g>
		<g>
			<path class="st0" d="M126.9,42.9V28.4h8.8v1.5h-7.1v4.6h4.1v1.5h-4.1v5.5h7.5v1.5H126.9z"/>
		</g>
		<g>
			<path class="st0" d="M148.1,41.5c-0.9,1-2.2,1.6-3.9,1.6c-1.7,0-3.1-0.5-3.9-1.5c-0.9-1-1.3-2.6-1.3-4.6v-8.6h1.6V37
				c0,3.1,1.2,4.7,3.7,4.7c1.3,0,2.2-0.4,2.7-1.1c0.5-0.8,0.8-1.9,0.8-3.5v-8.6h1.6V37C149.4,39,148.9,40.5,148.1,41.5z"/>
		</g>
		<g>
			<path class="st0" d="M163.3,32.5c0,1.1-0.3,2-0.9,2.7c-0.6,0.7-1.5,1.1-2.5,1.4l3.2,6.3h-1.9l-3.1-6.2h-3.4v6.2h-1.6V28.4h5.7
				c0.6,0,1.2,0.1,1.8,0.2s1,0.4,1.4,0.8c0.4,0.3,0.7,0.8,1,1.3C163.2,31.2,163.3,31.8,163.3,32.5z M161.7,32.5c0-0.9-0.3-1.6-0.8-2
				c-0.5-0.4-1.2-0.7-2.2-0.7h-4.1v5.4h3.9c1.1,0,1.9-0.2,2.4-0.7C161.5,34.1,161.7,33.4,161.7,32.5z"/>
		</g>
		<g>
			<path class="st0" d="M175.5,39.1c0,0.6-0.1,1.1-0.3,1.6s-0.5,0.9-0.9,1.3s-0.9,0.6-1.5,0.8c-0.6,0.2-1.3,0.3-2,0.3
				c-1,0-1.9-0.2-2.7-0.6c-0.8-0.4-1.5-0.9-2.1-1.4l1.1-1.2c0.6,0.5,1.1,0.9,1.8,1.3c0.6,0.3,1.3,0.5,2.1,0.5c1,0,1.7-0.2,2.3-0.7
				c0.6-0.4,0.8-1.1,0.8-1.8c0-0.3-0.1-0.6-0.2-0.9c-0.1-0.3-0.3-0.5-0.6-0.8c-0.3-0.2-0.6-0.5-1.1-0.7c-0.4-0.2-1-0.5-1.7-0.7
				c-0.8-0.3-1.4-0.6-2-0.8c-0.5-0.3-1-0.6-1.3-0.9c-0.3-0.3-0.6-0.7-0.7-1.1c-0.1-0.4-0.2-0.9-0.2-1.4c0-0.6,0.1-1.1,0.3-1.6
				c0.2-0.5,0.5-0.8,0.9-1.2c0.4-0.3,0.9-0.6,1.4-0.7c0.6-0.2,1.2-0.2,1.9-0.2c1,0,1.8,0.1,2.5,0.4s1.3,0.7,1.9,1.1l-1,1.3
				c-0.5-0.4-1.1-0.8-1.6-1c-0.5-0.2-1.2-0.3-1.9-0.3c-0.5,0-0.9,0.1-1.3,0.2c-0.4,0.1-0.7,0.3-0.9,0.5c-0.2,0.2-0.4,0.4-0.5,0.7
				c-0.1,0.3-0.2,0.5-0.2,0.8c0,0.3,0,0.6,0.1,0.8c0.1,0.2,0.2,0.5,0.5,0.7c0.2,0.2,0.6,0.5,1,0.7c0.4,0.2,1,0.5,1.8,0.7
				c0.8,0.3,1.5,0.6,2,0.9s1,0.6,1.3,1c0.3,0.3,0.6,0.7,0.7,1.1C175.4,38,175.5,38.5,175.5,39.1z"/>
		</g>
		<g>
			<path class="st0" d="M187.6,42.9V36h-7.2v6.8h-1.6V28.4h1.6v6.2h7.2v-6.2h1.6v14.5H187.6z"/>
		</g>
		<g>
			<path class="st0" d="M193.2,42.9V28.4h1.6v14.5H193.2z"/>
		</g>
		<g>
			<path class="st0" d="M208.8,32.7c0,0.7-0.1,1.4-0.4,1.9c-0.2,0.6-0.6,1-1,1.4s-0.9,0.7-1.6,0.9c-0.6,0.2-1.3,0.3-2,0.3h-3.5v5.7
				h-1.6V28.4h5.4c0.7,0,1.3,0.1,1.8,0.3c0.6,0.2,1,0.4,1.5,0.8c0.4,0.4,0.7,0.8,1,1.4S208.8,32,208.8,32.7z M207.1,32.8
				c0-0.9-0.3-1.7-0.8-2.2c-0.5-0.5-1.3-0.8-2.3-0.8h-3.8v5.9h3.5C206,35.7,207.1,34.7,207.1,32.8z"/>
		</g>
	</g>
</g>
</svg>
