<?xml version="1.0" encoding="utf-8"?>
<!-- Generator: Adobe Illustrator 21.0.0, SVG Export Plug-In . SVG Version: 6.00 Build 0)  -->
<svg version="1.1" id="Layer_1" xmlns="http://www.w3.org/2000/svg" xmlns:xlink="http://www.w3.org/1999/xlink" x="0px" y="0px"
	 viewBox="0 0 526 79.8" style="enable-background:new 0 0 526 79.8;" xml:space="preserve">
<style type="text/css">
	.st0{fill:#FFFFFF;}
	.st1{fill:#FFFFFF;stroke:#000000;stroke-linecap:round;stroke-linejoin:round;stroke-miterlimit:10;}
</style>
<g>
	<path class="st0" d="M23.1,18.5c-2.6,0-3.4,1.7-3.4,5.3v6h7L26,39.6h-6.3v29.6h-8.4V39.6H5.6v-9.8h5.7v-5.9c0-9.8,2.8-15,10.6-15
		c1.7,0,3.7,0.2,4.9,0.4v9.2H23.1z"/>
	<path class="st0" d="M27.3,48.2c0-11,3.7-19.3,11.4-19.3c4.2,0,6.8,3.1,8,6.9v-6h8.1v39.3h-8.1v-6c-1.2,3.8-3.8,6.8-8,6.8
		c-7.7,0-11.4-8.3-11.4-19.3V48.2z M35.7,50.9c0,5.9,1.5,9.8,5.4,9.8c3.4,0,5.2-3.6,5.2-9.2v-4c0-5.6-1.8-9.2-5.2-9.2
		c-3.9,0-5.4,3.9-5.4,9.8V50.9z"/>
	<path class="st0" d="M72.3,29c3.3,0,6.4,1,8.1,2.6l-1.9,8.4c-1.3-0.9-3.4-1.8-5.6-1.8c-4.6,0-6.5,3.7-6.5,10.1v2.3
		c0,6.4,2,10.1,6.5,10.1c2.2,0,4.3-0.9,5.6-1.8l1.9,8.4C78.7,69,75.6,70,72.3,70c-9.9,0-14.4-7.5-14.4-19.6v-1.8
		C57.9,36.5,62.4,29,72.3,29z"/>
	<path class="st0" d="M81.5,51v-3.5C81.5,36.3,86,29,95.2,29c8.7,0,12.5,7.4,12.5,18.4v6.3H89.9c0.2,5.4,1.9,7.8,6.5,7.8
		c3.2,0,6.5-0.9,8.9-2.4l1.5,8.2c-2.2,1.7-6.8,2.9-10.8,2.9C85.4,70.1,81.5,62.5,81.5,51z M89.9,45.8h10.2v-1c0-4.3-1.2-7.7-4.9-7.7
		C91.4,37.2,89.9,40.6,89.9,45.8z"/>
	<path class="st0" d="M138.8,50.7c0,11-3.7,19.3-11.5,19.3c-4.2,0-7.1-3-8.3-6.8v6h-8V10.1l8.4-1.1v26.3c1.2-3.5,3.9-6.3,7.8-6.3
		c7.7,0,11.5,8.3,11.5,19.3V50.7z M130.4,48c0-5.5-1.5-9.7-5.6-9.7c-3.4,0-5.3,3.5-5.3,9.1v4.1c0,5.6,1.9,9.1,5.3,9.1
		c4,0,5.6-4.1,5.6-9.7V48z"/>
	<path class="st0" d="M141.6,50.5v-2c0-11.3,4.6-19.5,13.9-19.5c9.3,0,13.9,8.2,13.9,19.5v2c0,11.3-4.6,19.5-13.9,19.5
		C146.2,70,141.6,61.8,141.6,50.5z M160.9,47.7c0-5.2-1.5-9.3-5.4-9.3c-3.9,0-5.4,4.1-5.4,9.3v3.6c0,5.2,1.5,9.3,5.4,9.3
		c3.9,0,5.4-4.1,5.4-9.3V47.7z"/>
	<path class="st0" d="M172.1,50.5v-2c0-11.3,4.6-19.5,13.9-19.5c9.3,0,13.9,8.2,13.9,19.5v2c0,11.3-4.6,19.5-13.9,19.5
		C176.7,70,172.1,61.8,172.1,50.5z M191.4,47.7c0-5.2-1.5-9.3-5.4-9.3c-3.9,0-5.4,4.1-5.4,9.3v3.6c0,5.2,1.5,9.3,5.4,9.3
		c3.9,0,5.4-4.1,5.4-9.3V47.7z"/>
	<path class="st0" d="M211.4,48.6l8.3-18.8h8.9l-8.7,19.4l9.1,19.9h-8.9l-8.7-19.3v19.3H203V10.1l8.4-1.1V48.6z"/>
</g>
<g id="Kn5rwG.tif">
	<g>
		<path class="st0" d="M356.5,6.8c4.7,0.6,9.2,2.1,13.2,6.3c4.8,5.1,8.2,12.7,9.1,21.2c1.9,17.4-6.2,33.9-18.4,37.5
			c-3.5,1-7.1,0.8-10.7,0.8c-3.8,0-7.6,0-11.4,0c-7.2,0-15,1.4-21.8-2.6c-5.6-3.2-10.2-9.6-12.5-17.5c-0.5-1.6-0.9-3.2-1.1-4.9
			c-0.3-1.7-0.5-3.5-0.7-5.2c0-1.9,0-3.7,0-5.6c0.1-1.1,0.3-2.2,0.4-3.3c1.1-8.2,4.5-15.7,9.2-20.6c5.9-6.1,12.8-6.4,19.8-6.3
			c4.1,0.1,8.3,0,12.4,0C346.2,6.5,354.5,6.5,356.5,6.8z M340.7,50.4C340.7,50.4,340.7,50.5,340.7,50.4c4.5,0,9,0,13.6,0
			c0.9,0,1.8,0,2.7-0.2c2.9-0.7,5.1-2.9,6.2-6.9c1.1-4,0.6-7.7-1.4-10.9c-1.6-2.7-3.8-3.9-6.3-3.9c-9.7,0-19.3,0-29,0
			c-0.7,0-1.4,0-2,0.2c-3,0.8-5.2,3.1-6.2,7.2c-1,4.1-0.4,7.8,1.7,11c1.6,2.4,3.7,3.4,6,3.5C330.8,50.5,335.8,50.4,340.7,50.4z"/>
		<path class="st0" d="M518.1,46.9c-0.1,0.4-0.2,0.9-0.3,1.3c-0.8,2.9-2.2,4.8-4.3,5.7c-4.6,2-8.7,0.4-12.4-3.7
			c0.9-1.6,1.7-3.2,2.5-4.8c1.5,1.6,3,2.8,4.8,3.1c1.1,0.2,2.2,0,3.3-0.1c0.4-0.1,0.8-0.4,1.2-0.8c1-1.1,1.1-3,0-4
			c-0.8-0.7-1.8-1.2-2.8-1.6c-1.3-0.5-2.6-0.8-3.8-1.4c-1.9-0.9-3.5-2.6-4-5.6c-0.5-3.2,0.5-6.6,2.5-8.5c2.4-2.3,5.1-2.5,7.9-1.6
			c1.7,0.5,3.4,1.7,4.3,2.9c-0.8,1.5-1.5,3-2.2,4.2c-1.5-0.6-2.9-1.4-4.3-1.7c-0.9-0.2-1.9,0.2-2.8,0.6c-0.6,0.3-1.1,1.1-1.1,2.1
			c0,1,0.4,1.7,1,2c1,0.5,2.1,0.9,3.2,1.4c0.6,0.2,1.2,0.4,1.8,0.7c2.6,1.1,4.7,3.1,5.4,7.1C518.1,45.1,518.1,46,518.1,46.9z"/>
		<path class="st0" d="M419.2,40c0,8.4-4.4,14.7-10.3,14.7c-5.8,0-10.2-6.3-10.2-14.7c0-8.4,4.4-14.7,10.3-14.7
			C414.8,25.3,419.2,31.6,419.2,40z M414.5,40c0-4.7-2.3-8.1-5.5-8.2c-3.3,0-5.6,3.4-5.6,8.1c0,4.8,2.3,8.2,5.6,8.2
			C412.2,48.1,414.5,44.7,414.5,40z"/>
		<path class="st0" d="M462.6,54c-1.3,0-2.5,0-3.7,0c-0.2,0-0.4-0.4-0.4-0.6c-0.1-0.6-0.1-1.2-0.1-2c-0.3,0.3-0.5,0.5-0.6,0.7
			c-2.8,3.1-7.2,3.4-10.3,0.8c-2.5-2.2-3.7-5.6-3.8-9.6c-0.2-5.6-0.1-11.3-0.2-16.9c0-0.1,0-0.2,0-0.3c1.5,0,3.1,0,4.7,0
			c0,0.4,0,0.8,0,1.1c0,4.3,0,8.6,0,13c0,1.1,0.1,2.2,0.3,3.3c0.5,3.4,2.2,5.3,4.7,5.2c2.3-0.1,4.1-2.3,4.5-5.5
			c0.1-1.3,0.2-2.6,0.2-3.9c0-4,0-8,0-12c0-0.3,0-0.7,0-1.1c1.6,0,3.1,0,4.7,0C462.6,35.3,462.6,44.6,462.6,54z"/>
		<path class="st0" d="M493.2,54c-0.1-0.9-0.1-1.7-0.2-2.6c-0.3,0.3-0.4,0.5-0.6,0.7c-3.2,3.5-8.1,3.4-11.2-0.2
			c-1.8-2.1-2.7-4.9-2.8-8.1c-0.2-5.9-0.1-11.7-0.2-17.6c0-0.1,0-0.1,0.1-0.3c1.5,0,3,0,4.6,0c0,0.4,0,0.8,0,1.1
			c0,4.6,0,9.2,0.1,13.7c0,0.9,0.1,1.7,0.3,2.6c0.6,3.5,2.3,5.3,4.9,5.1c2.3-0.2,4.1-2.6,4.3-5.9c0.2-3.4,0.1-6.8,0.2-10.2
			c0-2.1,0-4.2,0-6.3c1.6,0,3.1,0,4.7,0c0,0.4,0,0.7,0,1c0,8.6,0,17.3,0,25.9c0,0.9-0.2,1.2-0.8,1.1C495.4,54,494.3,54,493.2,54z"/>
		<path class="st0" d="M439.7,28.5c-0.9,1.7-1.9,3.4-2.8,5.1c-1.8-1.5-3.6-2.2-5.6-1.4c-1.2,0.5-2.2,1.3-2.9,2.8
			c-1.6,3.2-1.3,8.1,0.6,10.8c1.7,2.4,5.2,3.6,8.3,0.1c1.1,1.5,2.3,2.9,3.4,4.3c-2.9,5-9.7,6.6-14.2,1.6c-4.5-4.9-5.2-15.3-1.4-21.7
			C428.5,24.2,435.6,23.4,439.7,28.5z"/>
		<path class="st0" d="M472.9,54c-1.5,0-2.9,0-4.3,0c-0.1,0-0.3-0.3-0.4-0.6c-0.1-0.1,0-0.3,0-0.5c0-13.7,0-27.5,0-41.2
			c0-0.3,0-0.6,0-0.9c1.6,0,3.1,0,4.7,0C472.9,25.1,472.9,39.5,472.9,54z"/>
	</g>
</g>
<line class="st1" x1="263.7" y1="6.5" x2="263.7" y2="72.5"/>
</svg>
