<?xml version="1.0" encoding="utf-8"?>
<!-- Generator: Adobe Illustrator 21.0.0, SVG Export Plug-In . SVG Version: 6.00 Build 0)  -->
<svg version="1.1" id="Layer_1" xmlns="http://www.w3.org/2000/svg" xmlns:xlink="http://www.w3.org/1999/xlink" x="0px" y="0px"
	 viewBox="0 0 513.7 62.4" style="enable-background:new 0 0 513.7 62.4;" xml:space="preserve">
<style type="text/css">
	.st0{fill:#FFFFFF;}
	.st1{fill:#FFFFFF;stroke:#000000;stroke-linecap:round;stroke-linejoin:round;stroke-miterlimit:10;}
</style>
<g>
	<path class="st0" d="M30.2,20.4c-2.5,0-3.2,1.1-3.2,3.5v4h6.6L33,34.5h-6v19.8h-8V34.5h-5.4V28H19V24C19,17.5,21.7,14,29.1,14
		c1.6,0,3.5,0.1,4.6,0.3v6.1H30.2z"/>
	<path class="st0" d="M34.2,40.3c0-7.4,3.5-12.9,10.8-12.9c4,0,6.4,2,7.6,4.6v-4h7.6v26.3h-7.6v-4c-1.1,2.5-3.6,4.5-7.6,4.5
		c-7.3,0-10.8-5.5-10.8-12.9V40.3z M42.1,42.1c0,3.9,1.4,6.5,5.1,6.5c3.3,0,4.9-2.4,4.9-6.1v-2.7c0-3.8-1.7-6.1-4.9-6.1
		c-3.7,0-5.1,2.6-5.1,6.5V42.1z"/>
	<path class="st0" d="M76.7,27.4c3.1,0,6,0.7,7.6,1.8l-1.8,5.6c-1.2-0.6-3.2-1.2-5.3-1.2c-4.3,0-6.2,2.5-6.2,6.7v1.5
		c0,4.3,1.9,6.7,6.2,6.7c2.1,0,4.1-0.6,5.3-1.2l1.8,5.6c-1.6,1.1-4.5,1.8-7.6,1.8c-9.3,0-13.6-5-13.6-13.1v-1.2
		C63.1,32.5,67.4,27.4,76.7,27.4z"/>
	<path class="st0" d="M85.4,42.1v-2.3c0-7.5,4.3-12.4,12.9-12.4c8.2,0,11.8,5,11.8,12.3v4.2H93.4c0.2,3.6,1.8,5.2,6.2,5.2
		c3,0,6.1-0.6,8.5-1.6l1.4,5.5c-2.1,1.1-6.4,1.9-10.2,1.9C89.2,54.9,85.4,49.9,85.4,42.1z M93.4,38.7h9.6V38c0-2.9-1.2-5.1-4.6-5.1
		C94.8,32.9,93.4,35.2,93.4,38.7z"/>
	<path class="st0" d="M139.7,42c0,7.4-3.5,12.9-10.8,12.9c-4,0-6.7-2-7.9-4.5v4h-7.5V14.8l8-0.7v17.6c1.2-2.3,3.7-4.2,7.4-4.2
		c7.3,0,10.8,5.5,10.8,12.9V42z M131.7,40.1c0-3.7-1.4-6.5-5.3-6.5c-3.3,0-5,2.3-5,6.1v2.8c0,3.8,1.8,6.1,5,6.1
		c3.8,0,5.3-2.8,5.3-6.5V40.1z"/>
	<path class="st0" d="M142.3,41.8v-1.3c0-7.6,4.3-13.1,13.1-13.1c8.8,0,13.1,5.5,13.1,13.1v1.3c0,7.6-4.3,13-13.1,13
		C146.6,54.8,142.3,49.4,142.3,41.8z M160.6,39.9c0-3.5-1.4-6.2-5.1-6.2c-3.7,0-5.1,2.8-5.1,6.2v2.4c0,3.5,1.4,6.2,5.1,6.2
		c3.7,0,5.1-2.8,5.1-6.2V39.9z"/>
	<path class="st0" d="M171.2,41.8v-1.3c0-7.6,4.3-13.1,13.1-13.1c8.8,0,13.1,5.5,13.1,13.1v1.3c0,7.6-4.3,13-13.1,13
		C175.5,54.8,171.2,49.4,171.2,41.8z M189.4,39.9c0-3.5-1.4-6.2-5.1-6.2s-5.1,2.8-5.1,6.2v2.4c0,3.5,1.4,6.2,5.1,6.2
		s5.1-2.8,5.1-6.2V39.9z"/>
	<path class="st0" d="M208.3,40.5l7.9-12.6h8.5l-8.2,13l8.6,13.3h-8.5l-8.2-12.9v12.9h-8V14.8l8-0.7V40.5z"/>
</g>
<g id="Kn5rwG.tif">
	<g>
		<path class="st0" d="M345.6,12.6c4.4,0.4,8.7,1.4,12.5,4.2c4.6,3.4,7.8,8.5,8.6,14.2c1.8,11.6-5.9,22.7-17.4,25.1
			c-3.3,0.7-6.7,0.5-10.1,0.5c-3.6,0-7.2,0-10.8,0c-6.9,0-14.2,0.9-20.7-1.8c-5.3-2.2-9.6-6.4-11.8-11.7c-0.5-1.1-0.8-2.2-1.1-3.3
			c-0.3-1.1-0.4-2.3-0.7-3.5c0-1.3,0-2.5,0-3.8c0.1-0.7,0.3-1.5,0.4-2.2c1-5.5,4.2-10.5,8.7-13.7c5.6-4,12.1-4.3,18.8-4.2
			c3.9,0,7.9,0,11.8,0C335.8,12.4,343.7,12.4,345.6,12.6z M330.7,41.8C330.7,41.8,330.7,41.8,330.7,41.8c4.3,0,8.5,0,12.8,0
			c0.8,0,1.7,0,2.5-0.1c2.8-0.5,4.8-1.9,5.8-4.6c1-2.7,0.5-5.1-1.3-7.3c-1.6-1.8-3.6-2.6-6-2.6c-9.1,0-18.3,0-27.4,0
			c-0.6,0-1.3,0-1.9,0.1c-2.9,0.5-4.9,2-5.9,4.8c-0.9,2.7-0.4,5.2,1.6,7.4c1.5,1.6,3.5,2.3,5.6,2.3C321.3,41.8,326,41.8,330.7,41.8z
			"/>
		<path class="st0" d="M498.5,39.4c-0.1,0.3-0.2,0.6-0.3,0.9c-0.7,1.9-2.1,3.2-4,3.8c-4.3,1.4-8.2,0.3-11.8-2.4
			c0.8-1.1,1.6-2.1,2.4-3.2c1.4,1.1,2.8,1.9,4.5,2c1,0.1,2.1,0,3.1-0.1c0.4,0,0.8-0.3,1.1-0.5c1-0.7,1-2,0-2.7
			c-0.8-0.5-1.7-0.8-2.6-1.1c-1.2-0.4-2.4-0.6-3.6-1c-1.8-0.6-3.3-1.7-3.7-3.8c-0.5-2.1,0.5-4.4,2.4-5.7c2.3-1.5,4.8-1.7,7.5-1.1
			c1.6,0.4,3.2,1.1,4.1,1.9c-0.7,1-1.5,2-2.1,2.8c-1.4-0.4-2.7-0.9-4.1-1.1c-0.9-0.1-1.8,0.2-2.7,0.4c-0.6,0.2-1,0.7-1,1.4
			c0,0.6,0.4,1.1,1,1.3c1,0.4,2,0.6,3,0.9c0.6,0.2,1.1,0.3,1.7,0.4c2.5,0.8,4.4,2.1,5.1,4.7C498.5,38.2,498.5,38.8,498.5,39.4z"/>
		<path class="st0" d="M404.9,34.8c0,5.6-4.2,9.8-9.7,9.8c-5.5,0-9.7-4.2-9.6-9.8c0-5.6,4.2-9.8,9.7-9.8
			C400.7,24.9,404.9,29.2,404.9,34.8z M400.5,34.8c0-3.1-2.2-5.4-5.2-5.5c-3.1,0-5.3,2.3-5.3,5.4c0,3.2,2.2,5.5,5.3,5.5
			C398.2,40.2,400.4,37.9,400.5,34.8z"/>
		<path class="st0" d="M446,44.2c-1.2,0-2.4,0-3.5,0c-0.1,0-0.4-0.2-0.4-0.4c-0.1-0.4-0.1-0.8-0.1-1.3c-0.2,0.2-0.4,0.3-0.6,0.5
			c-2.7,2-6.8,2.3-9.7,0.5c-2.4-1.5-3.5-3.8-3.6-6.4c-0.2-3.8-0.1-7.6-0.2-11.3c0-0.1,0-0.1,0-0.2c1.5,0,2.9,0,4.4,0
			c0,0.3,0,0.5,0,0.7c0,2.9,0,5.8,0,8.7c0,0.7,0.1,1.5,0.3,2.2c0.5,2.3,2.1,3.5,4.4,3.5c2.2,0,3.9-1.5,4.2-3.7
			c0.1-0.8,0.1-1.7,0.2-2.6c0-2.7,0-5.4,0-8c0-0.2,0-0.5,0-0.7c1.5,0,3,0,4.5,0C446,31.7,446,37.9,446,44.2z"/>
		<path class="st0" d="M474.8,44.2c-0.1-0.6-0.1-1.1-0.2-1.7c-0.3,0.2-0.4,0.3-0.6,0.4c-3,2.3-7.7,2.3-10.6-0.1
			c-1.7-1.4-2.6-3.3-2.7-5.4c-0.2-3.9-0.1-7.8-0.2-11.8c0,0,0-0.1,0.1-0.2c1.4,0,2.8,0,4.4,0c0,0.3,0,0.5,0,0.8c0,3.1,0,6.1,0.1,9.2
			c0,0.6,0.1,1.2,0.2,1.7c0.6,2.3,2.2,3.5,4.6,3.4c2.2-0.1,3.9-1.7,4.1-4c0.2-2.3,0.1-4.6,0.1-6.9c0-1.4,0-2.8,0-4.2
			c1.5,0,3,0,4.5,0c0,0.3,0,0.5,0,0.7c0,5.8,0,11.6,0,17.4c0,0.6-0.2,0.8-0.8,0.7C477,44.1,475.9,44.2,474.8,44.2z"/>
		<path class="st0" d="M424.3,27.1c-0.9,1.1-1.8,2.3-2.7,3.4c-1.7-1-3.4-1.5-5.3-0.9c-1.1,0.3-2.1,0.9-2.8,1.9
			c-1.5,2.1-1.2,5.4,0.6,7.2c1.6,1.6,4.9,2.4,7.9,0.1c1.1,1,2.2,1.9,3.2,2.9c-2.8,3.3-9.1,4.4-13.4,1.1c-4.3-3.3-4.9-10.2-1.4-14.5
			C413.6,24.2,420.4,23.7,424.3,27.1z"/>
		<path class="st0" d="M455.7,44.2c-1.4,0-2.7,0-4.1,0c-0.1,0-0.3-0.2-0.4-0.4c0-0.1,0-0.2,0-0.3c0-9.2,0-18.4,0-27.6
			c0-0.2,0-0.4,0-0.6c1.5,0,2.9,0,4.4,0C455.7,24.9,455.7,34.5,455.7,44.2z"/>
	</g>
</g>
<line class="st1" x1="257.8" y1="12.4" x2="257.8" y2="56.5"/>
</svg>
