<svg id="Layer_1" xmlns="http://www.w3.org/2000/svg" viewBox="259.3 341.7 320.7 278.3"><style>.st0{fill:#007dc2}</style><path class="st0" d="M411.6 563.5c-63.4 5.8-129.4-3.4-138.7-52.9-4.5-24.4 6.6-50.3 21.4-66.4v-8.5c-26.6 23.3-41 52.8-32.7 87.6 10.6 44.7 67.3 70 153.8 61.6 34.3-3.3 79.1-14.3 110.2-31.4v-24.3c-28.3 16.8-75 30.7-114 34.3zm167-128.4c-15-73.4-157.5-78-249.4-22.1v6.2c91.7-47.2 221.9-46.9 233.7 20.7 4 22.4-8.6 45.7-31.1 59.1v17.5c27.1-10 54.8-42.1 46.8-81.4z"/><path class="st0" d="M520.5 424.4h-16.6v74c0 8.7 4.2 16.2 16.6 17.4v-91.4zm-197.8 27H306v48.3c0 8.7 4.2 16.2 16.7 17.4v-65.7zM306 426.6h16.6v15.7H306zm116.2 89.8c-13.4 0-19.1-9.3-19.1-18.6v-64.2h16.5v17.8H432v13.3h-12.4v32.1c0 3.8 1.8 5.8 5.7 5.8h6.7v13.7l-9.8.1m30.3-27.4c0 8.4 5.3 14.6 14.6 14.6 7.3 0 10.9-2 15.1-6.2l10.2 9.7c-6.5 6.4-13.4 10.4-25.4 10.4-15.8 0-30.9-8.6-30.9-33.7 0-21.4 13.2-33.6 30.5-33.6 17.6 0 27.7 14.2 27.7 32.8v5.9l-41.8.1m13.4-25.1c-5.6 0-10 2.9-11.8 6.8-1.1 2.4-1.5 4.2-1.6 7.1h25.4c-.4-7.1-3.6-13.9-12-13.9zm-98.5.8c4.8 0 6.8 2.4 6.8 6.3v45.5h16.5v-45.6c0-9.2-4.9-19.4-19.4-19.4h-34v65.1h16.5v-51.9h13.6zm171-27.1c-3.7 0-6.6-3-6.6-6.6 0-3.6 2.9-6.6 6.6-6.6 3.6 0 6.6 3 6.6 6.6 0 3.6-3 6.6-6.6 6.6zm0-12.1c-3 0-5.4 2.5-5.4 5.5s2.4 5.5 5.4 5.5 5.5-2.4 5.5-5.5c0-3-2.5-5.5-5.5-5.5zm2.9 9.5h-1.2c-.1 0-.2-.1-.3-.2l-1.7-2.8c-.1-.1-.2-.1-.3-.1h-.8v2.8c0 .1-.1.3-.3.3h-1.1c-.2 0-.3-.2-.3-.3v-7.1c0-.4.1-.6.5-.6s1.4-.1 2-.1c2.1 0 3.3.6 3.3 2.5v.1c0 1.2-.6 1.8-1.5 2.1l1.7 3s.1.1.1.2c.2 0 .1.2-.1.2zm-1.6-5.7c0-.8-.5-1-1.5-1h-1.1v2.3h1.1c1 0 1.5-.4 1.5-1.1v-.2z"/></svg>