<?xml version="1.0" encoding="utf-8"?>
<!-- Generator: Adobe Illustrator 19.2.1, SVG Export Plug-In . SVG Version: 6.00 Build 0)  -->
<svg version="1.1" id="Layer_1" xmlns="http://www.w3.org/2000/svg" xmlns:xlink="http://www.w3.org/1999/xlink" x="0px" y="0px"
	 viewBox="0 0 140.4 48.1" style="enable-background:new 0 0 140.4 48.1;" xml:space="preserve">
<g>
	<g>
		<g>
			<g>
				<polygon points="76.5,41.3 76.5,41.3 76.5,41.3 				"/>
			</g>
			<g>
				<path d="M47.1,39.3C47.1,39.3,47.1,39.3,47.1,39.3C47.1,39.3,47.2,39.3,47.1,39.3L47.1,39.3z"/>
			</g>
			<g>
				<path d="M86.3,29.5c0.4-0.1,0.8-0.3,1.2-0.4c0.9-0.2,1.8-0.3,2.7-0.4c0.2,0,0.3,0,0.4-0.1c0,0,0.1-0.1,0.1-0.1
					c0.1-0.5,0.1-1,0-1.6c0-0.1-0.1-0.2-0.2-0.2c-0.2,0-0.5,0-0.7,0c-0.7,0-1.3,0-2,0c-0.3,0-0.6,0-0.8,0c-1.2,0-2.4,0-3.6,0
					c-0.3,0-0.6,0-0.9,0c-0.1,0-0.2,0-0.4,0c-0.6,0-1.2,0-1.8,0c-0.7,0-1.4,0-2,0c-0.1,0-0.3,0-0.4-0.1c-0.2,0.1-0.3,0.1-0.5,0.1
					c-0.1,0-0.3,0-0.4,0c0,0,0,0,0,0c-1.1,0-2.2,0-3.3,0c-1,0-2,0-3,0c0,0,0,0,0,0c-0.1,0-0.2,0-0.3,0c-0.1,0-0.1,0-0.2,0
					c-0.1,0-0.1,0-0.2,0c-0.6,0-0.6,0.1-0.6,0.8c0,0.3,0,0.6,0,0.9c0,0.1,0.1,0.2,0.2,0.2c0.7,0.1,1.3,0.2,2,0.2
					c0.6,0.1,1.2,0.2,1.8,0.4c0.3,0.1,0.6,0.2,0.9,0.4c0.6,0.3,1.1,0.9,1.3,1.6c0.1,0.2,0.1,0.5,0.1,0.7c0.1,0.7,0.2,1.3,0.2,2
					c0,1.1,0,2.2,0,3.3c0,0.9-0.1,1.7-0.3,2.5c-0.3,1.5-1.1,2.7-2.3,3.7c-0.8,0.7-1.7,1.2-2.7,1.5c-0.1,0-0.2,0-0.3,0
					c-0.1,0.1-0.2,0.1-0.3,0.2c-0.8,0.3-1.7,0.5-2.6,0.5c-0.4,0-0.7,0-1,0c-1.1,0-2.2-0.1-3.2-0.4c-0.1,0-0.2-0.1-0.3-0.2
					c0,0-0.1,0-0.1,0c-0.2,0-0.3-0.1-0.5-0.1c-2-0.7-3.8-1.8-5.3-3.3c-1.3-1.3-2.4-2.7-3.3-4.4c-1.3-2.4-2.2-4.9-2.7-7.6
					c-0.3-1.8-0.5-3.7-0.5-5.6c0-0.6,0-1.2,0-1.8c0-1.8,0.2-3.6,0.6-5.4c0-0.1,0-0.1,0.1-0.2c0.2-1.6,0.8-3.2,1.4-4.7
					c0.6-1.5,1.3-2.8,2.2-4.1c1.1-1.6,2.4-2.9,4-4c1.7-1.2,3.6-2,5.7-2.2c0.6-0.1,1.3-0.1,1.9-0.1c2.7,0,5.3,0.7,7.7,2.2
					c1.7,1.1,3.1,2.4,4.4,3.9c1.5,1.7,2.8,3.7,3.8,5.7c0.1,0.2,0.2,0.4,0.3,0.7c0.1,0.2,0.3,0.2,0.4,0.3c0.2,0,0.4,0,0.6,0
					c0.2,0,0.4,0,0.5,0c0.1,0,0.2-0.1,0.2-0.2c0-0.2,0-0.3,0-0.5c0-0.5,0-0.9,0-1.4c0-0.5,0-1-0.1-1.5c0-0.4,0-0.7-0.1-1.1
					C84,7.4,83.9,5,83.8,2.6c0-0.8-0.1-1.7-0.1-2.5c0-0.2-0.1-0.3-0.3-0.3c-0.6,0-1.1,0-1.7,0c0,0,0,0,0,0c-0.2,0-0.4,0.1-0.6,0.3
					c-0.5,0.6-1.3,1-2,1.2c-0.6,0.2-1.2,0.2-1.9,0.2c-0.4,0-0.8,0-1.2-0.1c-1.4-0.2-2.8-0.5-4.1-0.8c-1.7-0.4-3.4-0.7-5.1-0.8
					c-1.1-0.1-2.1-0.2-3.2-0.2c-1,0-2.1,0.1-3.1,0.2c-1.5,0.2-2.9,0.5-4.4,1C52.8,2,50,3.9,47.6,6.4C47.4,6.6,47.2,6.8,47,7
					c-0.2,0.3-0.4,0.6-0.7,0.9c-1.6,2.1-2.9,4.4-3.8,6.8c-0.9,2.3-1.4,4.7-1.6,7.2c0,0.4-0.1,0.8-0.2,1.3c0,0.2,0,0.3,0,0.5
					c0,1,0,2,0.1,3c0.4,4.6,1.9,8.9,4.8,12.6c0.7,0.9,1.5,1.8,2.4,2.7c0.2,0.2,0.4,0.4,0.6,0.6c0.1,0,0.1,0.1,0.1,0.2c0,0,0,0,0,0
					c0.2,0,0.3,0.1,0.4,0.2c2.8,2.3,6.1,3.7,9.6,4.5c1.3,0.3,2.5,0.5,3.8,0.6c0.5,0,1.1,0.1,1.6,0.2c0.3,0,0.7,0,1,0
					c1.1,0,2.1,0,3.2-0.1c0.1,0,0.3,0,0.4,0c0.1,0,0.2,0,0.3,0c0,0,0.1,0,0.1,0c0.7-0.1,1.4-0.2,2.2-0.4c0.9-0.1,1.8-0.3,2.7-0.5
					c0.1,0,0.2,0,0.4,0c0.4-0.2,0.8-0.3,1.2-0.4c2.7-0.7,5.3-1.7,7.8-2.9c0.2-0.1,0.3-0.2,0.5-0.2c0.2-0.1,0.3-0.2,0.3-0.5
					c0-0.2,0-0.5,0-0.7c0-2,0-4,0-6.1c0-0.6,0-1.3,0-1.9c0-0.7,0.1-1.4,0.2-2.1c0-0.3,0.1-0.6,0.2-0.9C85,30.5,85.5,29.9,86.3,29.5z
					 M74.6,3C74.6,3,74.6,2.9,74.6,3L74.6,3c0.2,0,0.4,0,0.6,0c0.7,0.2,1.4,0.3,2.2,0.3c0,0,0.1,0,0.1,0c0.6,0,1.1-0.1,1.7-0.3
					c0.2-0.1,0.4-0.1,0.6-0.2c0.1,0,0.1,0,0.1,0C80,2.8,80,2.9,80.1,3c0.1,0.5,0.1,0.9,0.1,1.4c0,0.5,0.1,0.9,0.1,1.4c0,0,0,0,0,0
					c0.1,0.9,0.1,1.8,0.2,2.6c0,0,0,0.1,0,0.1h0c-0.1,0-0.1,0-0.2,0c-0.2-0.2-0.4-0.4-0.5-0.6c-1.2-1.4-2.5-2.7-3.9-3.8
					C75.4,3.7,75,3.4,74.6,3C74.6,3,74.6,3,74.6,3z M52.1,43.7c-1.7-1-3.2-2.3-4.5-3.8c-0.1-0.1-0.3-0.3-0.3-0.4
					c-0.1,0-0.2-0.1-0.2-0.2c-0.2-0.1-0.3-0.2-0.4-0.4c-1.4-1.9-2.5-3.9-3.3-6.1c-0.7-1.8-1.1-3.7-1.4-5.7c0-0.1,0-0.2,0-0.4
					c-0.2-1.5-0.2-3.1-0.1-4.7c0.1-1.3,0.3-2.7,0.6-4c0.9-3.5,2.4-6.6,4.5-9.4c0.1-0.1,0.2-0.3,0.4-0.4c0-0.1,0.1-0.2,0.1-0.2
					c1.9-2.3,4.1-4.3,6.8-5.6c1.4-0.7,2.8-1.2,4.3-1.5c0.2-0.1,0.5-0.1,0.7-0.2c0.1,0,0.1,0.1,0,0.1c0,0,0,0-0.1,0.1
					c-0.2,0.1-0.4,0.2-0.6,0.3c-0.7,0.3-1.4,0.7-2,1c-1.7,0.9-3.2,2-4.6,3.4c-1.2,1.2-2.3,2.4-3.2,3.8c-0.2,0.2-0.3,0.5-0.5,0.6
					c0,0.2-0.2,0.4-0.3,0.6c-1.3,2.2-2.3,4.5-3,7c-0.3,1.2-0.6,2.4-0.7,3.7c-0.1,0.7-0.1,1.5-0.2,2.2c-0.1,2.5,0.3,4.9,1.1,7.2
					c1.7,5.2,4.7,9.3,9.1,12.6c0.7,0.5,1.5,1,2.3,1.4c1.1,0.6,2.2,1.1,3.3,1.7c0.1,0.1,0.3,0.1,0.4,0.3
					C57.3,46.1,54.6,45.2,52.1,43.7z M79.1,39.5c-0.1,0.5-0.2,1.1-0.4,1.6c-0.6,1.5-1.6,2.6-3.1,3.3c-0.7,0.4-1.4,0.6-2.2,0.8
					c0,0,0,0,0,0c0,0-0.1,0-0.1-0.1c0,0,0-0.1,0-0.1c0,0,0.1-0.1,0.1-0.1c0.1-0.1,0.2-0.1,0.3-0.2c1.1-0.8,2-1.7,2.5-3
					c0.1-0.2,0.1-0.4,0.3-0.4c0-0.2,0-0.3,0-0.4c0.2-0.4,0.3-0.9,0.4-1.3c0.1-0.5,0.1-1,0.1-1.5c0-1.5,0-3,0-4.5
					c0-0.4,0-0.9-0.1-1.3c-0.1-0.6-0.3-1.2-0.6-1.7c0-0.1,0-0.1-0.1-0.2c-0.5-0.5-1-1-1.4-1.5c0,0,0-0.1,0-0.1c0,0,0,0,0.1,0l0,0
					c0.7,0,1.3,0.1,1.9,0.5c0.4,0,0.7,0.3,1,0.5c0.5,0.4,0.8,0.9,1,1.5c0.1,0.2,0.2,0.5,0.2,0.7c0.1,1.1,0.3,2.1,0.2,3.2
					C79.4,36.7,79.3,38.1,79.1,39.5z"/>
			</g>
		</g>
		<g>
			<path d="M121,47.2c0.2,0,0.4,0,0.6,0c3.7,0,7.3,0,11,0c2.4,0,4.7,0,7.1,0c0.2,0,0.3,0,0.5,0c0.1,0,0.1,0,0.2,0
				c0,0,0.1-0.1,0.1-0.1c0-0.5,0-1,0-1.5c0-0.1-0.1-0.2-0.2-0.2c-0.2-0.1-0.5-0.1-0.7-0.2c-0.6-0.2-1.3-0.4-1.9-0.7
				c-0.9-0.4-1.6-1-2.1-1.8c-0.3-0.4-0.5-0.8-0.8-1.3c-0.4-0.8-0.8-1.7-1.1-2.5c-1.5-3.8-3-7.6-4.5-11.4
				c-3.4-8.6-6.7-17.2-10.1-25.8c-0.1-0.3-0.2-0.6-0.3-1c0-0.1-0.1-0.1-0.1-0.2C118.5,0.1,118.3,0,118,0c0,0,0,0,0,0
				c-0.3,0-0.6,0-0.9,0c-0.4,0-0.7,0-1.1,0c0,0,0,0,0,0c-0.4,0-0.7,0.1-1,0.2c-2.2,0.8-4.4,1.5-6.6,2.3c-0.2,0.1-0.4,0.1-0.6,0.2
				c-0.1,0-0.2,0.1-0.2,0.3c0,0.4,0,0.8,0,1.2c0,0.1,0.1,0.2,0.2,0.2c0.1,0,0.2,0,0.4,0.1c0.5,0.1,1.1,0.2,1.6,0.4
				c0.5,0.2,0.9,0.4,1.3,0.7c0.5,0.4,0.9,0.9,1.2,1.5c0.1,0.1,0.1,0.2,0,0.4c0,0.1-0.1,0.2-0.1,0.3c-1.6,4.1-3.2,8.3-4.8,12.4
				c-0.1,0.2-0.2,0.3-0.2,0.5c-0.1,0.2-0.1,0.4-0.2,0.6c-1.5,3.8-3,7.7-4.5,11.5c-0.1,0.2-0.1,0.3-0.2,0.5c-0.6,1.4-1.1,2.9-1.7,4.3
				c-0.2,0.6-0.5,1.1-0.8,1.7c0,0.1-0.1,0.1-0.2,0.2c-0.1,0.4-0.3,0.7-0.6,1c-0.6,1-1.3,1.9-2.1,2.7c-1,1-2.2,1.7-3.6,2.1
				c-0.1,0-0.2,0.1-0.4,0.1c-0.1,0-0.2,0.1-0.2,0.2c0,0.5,0,0.9,0,1.4c0,0.1,0.1,0.2,0.3,0.2c0.3,0,0.5,0,0.8,0c0.3,0,0.7,0,1,0
				c0.5,0,1,0,1.5,0c0.8,0,1.6,0,2.4,0c0.3,0,0.6,0,0.9,0c0.4,0,0.9,0,1.3,0c0.4,0,0.9,0,1.3,0.1c0.8,0,1.6-0.1,2.4-0.1
				c0.8,0,1.7,0,2.5,0c0.2,0,0.3,0,0.5,0c0.4,0,0.5,0,0.5-0.5c0-0.4,0-0.7,0-1.1c0-0.1-0.1-0.2-0.2-0.3c-0.2-0.1-0.5,0-0.7-0.1
				c-1-0.1-1.9-0.5-2.6-1.2c-1.2-1.1-1.8-2.5-1.8-4.2c0-1.5,0.3-3,0.8-4.5c0.5-1.4,1.1-2.8,1.7-4.3c0.2-0.4,0.3-0.9,0.5-1.3
				c0.1-0.1,0.2-0.3,0.3-0.3l0,0c0.4,0,0.7,0,1.1,0c0.2,0,0.4,0,0.6,0c1.8,0,3.6,0,5.4,0c1.8,0,3.6,0,5.4,0c0.2,0,0.4,0,0.5,0
				c0.7,0,1.5,0,2.2,0h0c0.1,0,0.2,0.1,0.3,0.2c0.1,0.2,0.2,0.4,0.3,0.6c1.2,3.1,2.5,6.3,3.7,9.4c0.2,0.5,0.3,1,0.5,1.5
				c0.2,0.6,0.2,1.2,0.1,1.8c-0.1,0.6-0.4,1.1-1,1.4c-0.3,0.1-0.6,0.3-0.8,0.3c-0.6,0.1-1.1,0.3-1.7,0.4c-0.4,0.1-0.8,0.1-1.3,0.2
				c-0.2,0-0.3,0.1-0.3,0.3c0,0.2,0,0.4,0,0.6c0,0.2,0,0.5,0,0.7C120.8,47.1,120.9,47.2,121,47.2z M102,45.4
				C102,45.4,102,45.4,102,45.4c-0.9,0-1.8,0-2.7,0c-0.5,0-0.9,0-1.4,0c-0.5,0-1,0-1.6,0c0,0-0.1,0-0.1,0c-0.1-0.1,0-0.1,0-0.2
				c0.1-0.1,0.2-0.2,0.3-0.3c0.9-0.7,1.7-1.5,2.3-2.5c0.1-0.1,0.2-0.2,0.3-0.3c0.2-0.5,0.5-0.9,0.8-1.3c0,0,0,0,0,0c0,0,0,0,0.1,0
				c0,0,0,0,0,0.1c0,0.2,0,0.3,0,0.5c0,1.4,0.5,2.7,1.6,3.7c0.1,0.1,0.1,0.1,0.2,0.2c0,0,0.1,0.1,0.1,0.2
				C102.1,45.3,102.1,45.4,102,45.4z M120.2,27.3c0,0.1-0.1,0.1-0.1,0.1c-0.2,0-0.4,0.1-0.7,0.1c-0.2,0-0.5,0-0.7-0.1
				c-0.2,0-0.4,0.1-0.6,0.1c-1.8,0-3.5,0-5.3,0c-1.8,0-3.6,0-5.4,0c-0.2,0-0.4,0-0.6-0.1c-0.1,0-0.2,0-0.2,0c0,0,0,0,0,0
				c-0.1,0-0.2-0.1-0.2-0.2c0.1-0.4,0.2-0.7,0.4-1c0-0.3,0.1-0.5,0.2-0.7c1.1-2.9,2.3-5.9,3.4-8.8c0.8-2,1.6-4.1,2.4-6.1
				c0.1-0.2,0.2-0.4,0.3-0.7c0,0,0.1-0.1,0.2-0.1c0,0,0,0,0,0c0,0,0.1,0,0.1,0c0.1,0.2,0.2,0.5,0.3,0.7c1.4,3.5,2.7,6.9,4.1,10.4
				c0.3,0.7,0.6,1.5,0.9,2.2c0,0.1,0.1,0.2,0.1,0.4c0,0,0.1,0.1,0.1,0.1c0.4,1.1,0.9,2.2,1.3,3.3C120.2,27.2,120.3,27.2,120.2,27.3z
				 M125.4,45.3c0-0.1,0-0.1,0.1-0.1c0.2-0.2,0.4-0.3,0.6-0.5c0.2-0.1,0.3-0.3,0.5-0.4c0.2-0.2,0.3-0.5,0.4-0.8c0.1-0.7,0-1.3-0.1-2
				c-0.2-0.8-0.5-1.6-0.8-2.4c-2.3-5.7-4.5-11.5-6.7-17.2c-0.2-0.5-0.4-0.9-0.5-1.5c-0.2-0.3-0.3-0.7-0.5-1.1
				c-1.4-3.6-2.8-7.2-4.2-10.8c-0.3-0.7-0.6-1.5-1-2.1c-0.5-0.9-1.2-1.6-2.1-2c-0.1-0.1-0.2-0.1-0.3-0.2c0,0,0-0.1,0-0.2
				c0,0,0-0.1,0.1-0.1c0.4-0.1,0.7-0.1,1-0.1c0.7,0,1.3,0.2,2,0.5c0.3,0.2,0.6,0.4,0.8,0.7c0.3,0.4,0.5,0.7,0.8,1.1
				c0.2,0.4,0.4,0.9,0.6,1.3c1,2.4,1.9,4.8,2.8,7.2c0,0.1,0.1,0.2,0.1,0.4c0.2,0.2,0.3,0.5,0.4,0.7c1,2.6,2,5.2,3.1,7.8
				c1.8,4.7,3.7,9.3,5.5,14c0.4,1.1,0.8,2.1,1.1,3.2c0.1,0.6,0.3,1.2,0.3,1.8c0.1,1.5-1,2.8-2.6,3c-0.2,0-0.4,0-0.5,0
				c0,0-0.1,0-0.1,0c0,0-0.1,0-0.1,0c0,0,0,0,0,0C125.5,45.4,125.4,45.3,125.4,45.3z"/>
		</g>
		<g>
			<path d="M7.5,45.2c0.7,0,1.3,0.1,1.9,0.3c1.5,0.4,3,0.9,4.4,1.4c0,0,0,0,0.1,0.1c0.2,0,0.4,0.1,0.5,0.1c0.5,0.2,1,0.3,1.5,0.5
				c0.6,0.2,1.2,0.3,1.9,0.4c0.1,0,0.3,0,0.4,0.1c0.2,0,0.5,0,0.7,0c0.3,0,0.6,0,0.9,0c1.1,0,2.2-0.1,3.3-0.3c3.9-0.9,7-2.9,9.2-6.2
				c2.1-3.1,2.9-6.6,2.5-10.4c-0.2-1.9-0.9-3.7-1.9-5.4c-1.7-2.7-4.1-4.5-7-5.7c-1.1-0.4-2.1-0.7-3.3-0.9c-1.3-0.3-2.6-0.5-4-0.7
				c-0.2,0-0.4,0-0.5-0.2c-0.1,0-0.1,0-0.2,0c-0.4,0-0.7-0.1-1.1-0.2c-1.1-0.2-2.2-0.4-3.3-0.7c-1.5-0.3-2.9-0.6-4.2-1.2
				c-0.9-0.4-1.8-0.9-2.6-1.5C6,13.9,5.3,13,5,11.9c-0.2-0.5-0.3-1-0.3-1.5C4.6,9.3,4.7,8.2,5,7.2c0.5-1.5,1.3-2.7,2.4-3.7
				c1.7-1.6,3.8-2.3,6.1-2.4c0,0,0,0,0,0c0.1,0,0.2,0,0.3,0c0.1,0,0.2,0,0.2,0c0,0,0,0,0,0c1.3,0.1,2.6,0.3,3.9,0.8
				c0.1,0,0.2,0.1,0.2,0.1c0.1,0,0.3,0.1,0.4,0.1c1.3,0.6,2.5,1.4,3.5,2.4c1,0.9,1.9,1.9,2.7,3c1.5,1.9,2.7,3.9,3.8,6
				c0.5,0,1,0,1.5,0c0.1,0,0.2,0,0.2,0c0.1,0,0.2,0,0.3-0.1c0,0,0.1-0.1,0.1-0.1c0-0.2,0-0.3,0.1-0.5c0-0.1-0.1-0.3-0.1-0.4
				c-0.2-1.6-0.4-3.3-0.5-4.9c-0.1-0.8-0.2-1.7-0.3-2.5C30.1,4.1,30,3.3,30,2.4c-0.1-0.7-0.1-1.3-0.2-2c0-0.1,0-0.2,0-0.3
				c0-0.1-0.1-0.2-0.2-0.2c-0.5,0-1,0-1.5,0c-0.2,0-0.4,0-0.6,0c-0.1,0-0.3,0.1-0.4,0.1c-0.3,0.1-0.6,0.2-0.9,0.3
				c-0.6,0.2-1.3,0.3-1.9,0.3c-0.2,0-0.5,0-0.7,0c0,0,0,0-0.1,0c-0.1,0-0.3,0-0.4,0c-0.1,0-0.2,0-0.4,0c-1.4-0.2-2.9-0.4-4.3-0.8
				c-0.1,0-0.1,0-0.2,0c0,0-0.1,0-0.1,0c-1.2-0.2-2.5-0.4-3.7-0.4c-0.1,0-0.2,0-0.4,0c-0.2,0-0.4,0-0.6,0.1c-0.6,0-1.2,0.1-1.8,0.2
				C8.7,0.3,6.3,1.6,4.4,3.7C1.4,7,0.1,11.8,1.3,16.4c0.7,2.8,2.3,5.1,4.7,6.8c1.5,1.1,3.2,1.8,5,2.3c0.9,0.2,1.7,0.4,2.6,0.6
				c0.1,0,0.3,0.1,0.4,0.1c0.2,0,0.4,0,0.6,0.1c1,0.2,2.1,0.4,3.1,0.5c0.2,0,0.4,0.1,0.6,0.2c0.1,0,0.1,0,0.2,0c0.3,0,0.7,0.1,1,0.2
				c1.3,0.2,2.5,0.6,3.7,0.9c1.7,0.5,3.2,1.4,4.5,2.7c1,1,1.6,2.1,1.9,3.5c0.3,1.4,0.4,2.8,0.2,4.3c-0.2,1.5-0.8,2.8-1.8,4
				c-1.5,1.8-3.4,2.9-5.7,3.4c-0.8,0.2-1.6,0.3-2.4,0.3c-0.6,0-1.1,0-1.7-0.1c-0.6,0-1.2-0.2-1.8-0.3c-0.8-0.2-1.6-0.6-2.4-0.9
				c-0.1,0-0.1-0.1-0.2-0.2c-0.4-0.1-0.7-0.3-1-0.6c-1.4-0.9-2.6-2-3.7-3.3c-1.2-1.4-2.1-2.8-3-4.4c-0.9-1.7-1.7-3.5-2.4-5.3
				c-0.2-0.7-0.2-0.6-0.8-0.6c-0.1,0-0.2,0-0.3,0c-0.2,0-0.3,0-0.5,0c-0.1,0-0.2,0-0.4,0c-0.3,0-0.4,0.1-0.4,0.4c0,0.2,0,0.3,0,0.5
				c0,5,0,10.1,0,15.1c0,0.2,0,0.4,0,0.5c0,0.1,0.1,0.2,0.2,0.3c0.5,0,1,0,1.5,0h0c0.1,0,0.2-0.1,0.3-0.2c0.1-0.1,0.2-0.2,0.2-0.3
				c1-1.1,2.2-1.5,3.7-1.6C7.4,45.2,7.5,45.2,7.5,45.2z M22.3,2.8C22.3,2.8,22.3,2.8,22.3,2.8C22.3,2.8,22.3,2.8,22.3,2.8
				C22.9,2.9,23.4,2.9,24,3c0.2,0,0.3,0,0.5,0.1c0.6-0.1,1.1-0.2,1.7-0.3c0,0,0,0,0,0c0.1,0,0.2,0.1,0.2,0.2
				c0.1,0.2,0.1,0.4,0.1,0.6c0.2,1.3,0.5,2.7,0.7,4c0.1,0.3,0.2,0.7,0.1,1.1c0,0,0,0,0,0c0,0,0,0,0,0c0,0,0.1,0,0.1,0c0,0,0,0,0,0
				c0,0,0,0,0-0.1c0,0,0,0,0,0c0,0,0,0,0,0c0,0-0.1,0-0.1,0c-0.4-0.4-1-1.2-1.4-1.8c-0.2-0.2-0.4-0.5-0.6-0.7
				c-0.6-0.7-1.1-1.4-1.8-2c-0.4-0.4-0.9-0.8-1.3-1.1c0,0,0-0.1-0.1-0.2C22.2,2.8,22.2,2.8,22.3,2.8z M30.2,40.9L30.2,40.9
				C30.1,40.9,30.1,40.9,30.2,40.9c-0.1-0.1,0-0.1,0-0.1c0,0,0,0,0,0c0,0,0,0,0,0C30.2,40.8,30.2,40.9,30.2,40.9z M27.7,29.2
				c-0.7-0.6-1.5-1.1-2.4-1.5c-1.1-0.5-2.2-0.8-3.3-1.1c-1-0.2-2-0.4-3.1-0.6c-0.2,0-0.4-0.1-0.6-0.2c-0.1,0-0.1,0-0.2,0
				c-0.4,0-0.7-0.1-1.1-0.2c-0.8-0.1-1.7-0.3-2.5-0.4c-0.2,0-0.4-0.1-0.6-0.2c0,0-0.1,0-0.1,0c-0.3,0-0.5-0.1-0.8-0.2
				c-0.8-0.2-1.6-0.3-2.4-0.5c-0.8-0.2-1.5-0.5-2.2-0.8c-3.1-1.6-5.1-4.1-6-7.5c-0.4-1.5-0.5-3.1-0.2-4.6c0.1-0.5,0.1-1,0.3-1.4
				c0,0,0,0,0.1-0.1c0.1,0.5,0,1,0,1.4c0,0.9,0.1,1.7,0.3,2.5c0.7,2.8,2.2,4.9,4.6,6.5c1.6,1.1,3.3,1.8,5.2,2.1
				c0.4,0.1,0.7,0.1,1.1,0.2c0.1,0,0.2,0.1,0.2,0.1c0.2,0,0.5,0,0.7,0.1c1,0.2,2,0.3,2.9,0.5c0.2,0,0.5,0.1,0.7,0.2
				c0.1,0,0.1,0,0.2,0c0.3,0,0.6,0.1,0.9,0.2c1.7,0.3,3.5,0.7,5.2,1.3c0.8,0.3,1.6,0.6,2.4,0.9c1.2,0.6,2.2,1.3,3.1,2.3
				c1.2,1.2,1.9,2.7,2.2,4.4c0.1,0.7,0.2,1.5,0.2,2.2c0,2-0.6,3.8-1.8,5.4c-0.1,0.1-0.2,0.2-0.2,0.3c0,0,0,0,0,0c0,0,0,0,0,0
				c0,0-0.1-0.1-0.1-0.1c0-0.1,0-0.2,0-0.3c0.1-0.2,0.1-0.3,0.2-0.5c0.5-1.3,0.6-2.7,0.6-4.1C30.8,33,29.7,30.9,27.7,29.2z
				 M6.5,43.4c0,0-0.1,0.1-0.1,0.1c-0.3,0-0.7,0-1,0c-0.2,0-0.4,0-0.6,0.1c-0.5,0.1-1,0.4-1.3,0.8c-0.2,0.2-0.5,0.5-0.7,0.7
				c0,0,0,0-0.1,0c0,0,0,0,0,0c0,0-0.1-0.1-0.1-0.1c0-0.2,0-0.4,0-0.5c0-1.1,0-2.3,0-3.4h0c0-1.3,0-2.5,0-3.8c0-0.1,0-0.2,0.1-0.2
				c0,0,0,0,0,0c0,0,0.1,0.1,0.2,0.2C2.9,37.4,3,37.6,3,37.8c0.3,0.7,0.6,1.4,1,2c0.5,0.9,1.2,1.8,1.9,2.6c0.2,0.3,0.4,0.5,0.6,0.8
				C6.6,43.2,6.6,43.3,6.5,43.4z"/>
		</g>
	</g>
</g>
</svg>
