<?xml version="1.0" encoding="utf-8"?>
<!-- Generator: Adobe Illustrator 21.0.2, SVG Export Plug-In . SVG Version: 6.00 Build 0)  -->
<svg version="1.1" id="Layer_1" xmlns="http://www.w3.org/2000/svg" xmlns:xlink="http://www.w3.org/1999/xlink" x="0px" y="0px"
	 viewBox="0 0 40 40" style="enable-background:new 0 0 40 40;" xml:space="preserve">
<style type="text/css">
	.st0{fill:#FA9F3A;}
</style>
<g id="instagram">
	<g>
		<path class="st0" d="M26.8,20c0,3.8-3.1,6.8-6.8,6.8s-6.8-3.1-6.8-6.8c0-0.6,0.1-1.2,0.2-1.7h-1.9v9.4c0,0.5,0.4,0.9,0.9,0.9h15.3
			c0.5,0,0.9-0.4,0.9-0.9v-9.4h-1.9C26.7,18.8,26.8,19.4,26.8,20z"/>
		<path class="st0" d="M27.7,11.5h-2.6c-0.5,0-0.9,0.4-0.9,0.9v2.6c0,0.5,0.4,0.9,0.9,0.9h2.6c0.5,0,0.9-0.4,0.9-0.9v-2.6
			C28.5,11.9,28.1,11.5,27.7,11.5z"/>
		<circle class="st0" cx="20" cy="20" r="4.3"/>
		<path class="st0" d="M0,0v40h40V0H0z M31.1,28.5c0,1.4-1.1,2.6-2.6,2.6h-17c-1.4,0-2.6-1.1-2.6-2.6v-17c0-1.4,1.1-2.6,2.6-2.6h17
			c1.4,0,2.6,1.1,2.6,2.6L31.1,28.5z"/>
	</g>
</g>
<g id="Layer_1_1_">
</g>
</svg>
