<?xml version="1.0" encoding="utf-8"?>
<!-- Generator: Adobe Illustrator 21.0.2, SVG Export Plug-In . SVG Version: 6.00 Build 0)  -->
<svg version="1.1" id="Layer_1" xmlns="http://www.w3.org/2000/svg" xmlns:xlink="http://www.w3.org/1999/xlink" x="0px" y="0px"
	 viewBox="0 0 40 40" style="enable-background:new 0 0 40 40;" xml:space="preserve">
<style type="text/css">
	.st0{fill:#FA9F3A;}
</style>
<g id="twitter">
	<g>
		<path class="st0" d="M0,0v40h40V0H0z M29.9,15.8c0,0.2,0,0.4,0,0.7c0,6.7-5.1,14.5-14.5,14.5c-2.9,0-5.6-0.8-7.8-2.3
			c0.4,0,0.8,0.1,1.2,0.1c2.4,0,4.6-0.8,6.3-2.2c-2.2,0-4.1-1.5-4.8-3.5c0.3,0.1,0.6,0.1,1,0.1c0.5,0,0.9-0.1,1.3-0.2
			c-2.3-0.5-4.1-2.5-4.1-5c0,0,0,0,0-0.1c0.7,0.4,1.5,0.6,2.3,0.6c-1.4-0.9-2.3-2.5-2.3-4.2c0-0.9,0.3-1.8,0.7-2.6
			c2.5,3.1,6.3,5.1,10.5,5.3c-0.1-0.4-0.1-0.8-0.1-1.2c0-2.8,2.3-5.1,5.1-5.1c1.5,0,2.8,0.6,3.7,1.6c1.2-0.2,2.2-0.7,3.2-1.2
			c-0.4,1.2-1.2,2.2-2.2,2.8c1-0.1,2-0.4,2.9-0.8C31.7,14.2,30.9,15.1,29.9,15.8z"/>
	</g>
</g>
<g id="Layer_1_1_">
</g>
</svg>
